<svg width="996" height="52" viewBox="0 0 996 52" fill="none" xmlns="http://www.w3.org/2000/svg">
<g clip-path="url(#clip0)">
<path d="M92.3714 10.8454V34.6251H85.5142V31.1546C84.8137 32.3605 83.7972 33.3498 82.5757 34.0145C81.311 34.6846 79.8987 35.0235 78.4693 35C75.5144 35 73.306 34.1717 71.8442 32.515C70.3824 30.8583 69.6515 28.3568 69.6515 25.0104V10.8454H76.687V25.1495C76.6932 28.0306 77.9244 29.4712 80.3806 29.4712C81.8424 29.4712 83.0244 28.9706 83.9265 27.9693C84.8286 26.9681 85.2796 25.6549 85.2796 24.0296V10.8454H92.3714Z" fill="#544252"/>
<path d="M119.27 0V34.6251H112.319V31.1074C111.6 32.3313 110.548 33.3234 109.287 33.9673C107.916 34.6712 106.394 35.0258 104.855 35C102.936 35.03 101.052 34.4832 99.4442 33.4298C97.821 32.3387 96.5354 30.811 95.7342 29.0209C94.8477 27.1347 94.4045 24.9688 94.4045 22.5231C94.4045 20.0774 94.8477 17.9279 95.7342 16.0748C96.5337 14.3158 97.8118 12.8201 99.4208 11.7602C101.044 10.728 102.934 10.1976 104.855 10.2348C106.36 10.2161 107.848 10.5623 109.193 11.2439C110.446 11.8679 111.497 12.8357 112.225 14.0354V0H119.27ZM110.919 27.7996C111.857 26.5972 112.326 24.8682 112.326 22.6127C112.326 20.3933 111.852 18.6816 110.903 17.4776C109.954 16.2736 108.625 15.6716 106.916 15.6716C105.174 15.6716 103.821 16.2657 102.856 17.454C101.892 18.6423 101.409 20.3304 101.409 22.5184C101.409 24.7692 101.892 26.5123 102.856 27.7477C103.821 28.9832 105.174 29.6009 106.916 29.6009C108.651 29.604 109.986 29.0036 110.919 27.7996Z" fill="#544252"/>
<path d="M146.169 10.8455V34.6252H139.218V31.1075C138.501 32.33 137.453 33.322 136.195 33.9674C134.824 34.6713 133.302 35.0259 131.763 35.0001C129.845 35.0382 127.958 34.5165 126.329 33.4982C124.717 32.4517 123.438 30.9625 122.643 29.2072C121.75 27.3399 121.303 25.1905 121.303 22.7589C121.303 20.3273 121.747 18.1543 122.633 16.2399C123.429 14.4395 124.716 12.9026 126.346 11.8074C127.953 10.7533 129.837 10.2057 131.756 10.2348C133.303 10.2091 134.831 10.5817 136.195 11.317C137.452 11.9884 138.501 12.994 139.228 14.224V10.8455H146.169ZM137.818 27.8209C138.756 26.6326 139.225 24.9131 139.225 22.6622C139.225 20.4114 138.756 18.6825 137.818 17.4753C136.88 16.2729 135.542 15.6709 133.806 15.6693C132.069 15.6677 130.716 16.2965 129.748 17.5555C128.785 18.8129 128.303 20.5482 128.301 22.7613C128.3 24.9744 128.774 26.6703 129.725 27.8492C130.672 29.0233 132.033 29.6096 133.806 29.608C135.555 29.6064 136.893 29.0107 137.818 27.8209Z" fill="#544252"/>
<path d="M68.2232 34.9599H59.4828L50.0811 24.1782V34.9599H42.9471V0H50.0811V21.2334L59.0583 10.9256H67.6088L57.4519 22.4783L68.2232 34.9599Z" fill="#544252"/>
<path d="M23.3994 34.9717L9.70839 19.1304L17.1871 34.9717H12.0043L4.37784 18.8215L7.54849 34.9717H4.36377L1.19077 18.7956V34.9717H-0.0592041V0H1.19077V17.4493L4.40832 0H7.58133L4.35204 17.5248L12.1262 0H17.2528L9.50905 17.4587L23.5706 0H31.6051L17.0581 18.0623L31.6732 34.9717H23.3994Z" fill="#544252"/>
<path d="M152.079 34.5874C154.212 34.5874 155.942 32.8489 155.942 30.7043C155.942 28.5597 154.212 26.8212 152.079 26.8212C149.946 26.8212 148.217 28.5597 148.217 30.7043C148.217 32.8489 149.946 34.5874 152.079 34.5874Z" fill="#544252"/>
</g>
<g clip-path="url(#clip1)">
<path d="M334.556 34.0544C334.557 33.8371 334.643 33.6287 334.796 33.4723C334.948 33.3159 335.155 33.2235 335.375 33.2141C335.455 33.2132 335.534 33.2291 335.608 33.2606C335.682 33.2921 335.748 33.3386 335.803 33.3971C335.857 33.4555 335.899 33.5246 335.925 33.5999C335.951 33.6752 335.96 33.755 335.953 33.8343C335.955 34.0504 335.871 34.2586 335.719 34.4139C335.567 34.569 335.36 34.6588 335.141 34.6636C335.061 34.6659 334.981 34.6515 334.907 34.6213C334.833 34.5911 334.766 34.5458 334.711 34.4884C334.656 34.4309 334.613 34.3626 334.587 34.2878C334.56 34.2131 334.549 34.1335 334.556 34.0544Z" fill="#544252"/>
<path d="M337.25 34.0544C337.252 33.8371 337.338 33.6287 337.49 33.4723C337.643 33.3159 337.85 33.2235 338.069 33.2141C338.15 33.2132 338.229 33.2291 338.303 33.2606C338.376 33.2921 338.443 33.3386 338.497 33.3971C338.552 33.4555 338.593 33.5246 338.619 33.5999C338.645 33.6752 338.654 33.755 338.647 33.8343C338.649 34.0501 338.564 34.2578 338.412 34.4128C338.26 34.5678 338.054 34.6579 337.836 34.6636C337.756 34.6659 337.676 34.6515 337.602 34.6213C337.528 34.5911 337.461 34.5458 337.406 34.4884C337.351 34.4309 337.308 34.3626 337.281 34.2878C337.255 34.2131 337.244 34.1335 337.25 34.0544Z" fill="#544252"/>
<path d="M339.945 34.0544C339.946 33.8371 340.032 33.6287 340.185 33.4723C340.337 33.3159 340.544 33.2235 340.764 33.2141C340.844 33.2132 340.924 33.2291 340.997 33.2606C341.071 33.2921 341.137 33.3386 341.192 33.3971C341.246 33.4555 341.288 33.5246 341.314 33.5999C341.34 33.6752 341.349 33.755 341.342 33.8343C341.343 34.0501 341.259 34.2578 341.107 34.4128C340.955 34.5678 340.748 34.6579 340.53 34.6636C340.45 34.6659 340.371 34.6515 340.296 34.6213C340.222 34.5911 340.156 34.5458 340.1 34.4884C340.045 34.4309 340.003 34.3626 339.976 34.2878C339.949 34.2131 339.938 34.1335 339.945 34.0544Z" fill="#544252"/>
<path d="M341.735 36.3554L342.068 35.5921C342.182 35.6529 342.31 35.6833 342.439 35.6801C342.854 35.6801 343.258 35.3132 343.529 34.7884L343.677 34.4985L342.836 29.7279H343.866L344.17 32.1572C344.226 32.5902 344.27 33.148 344.296 33.6031H344.333C344.548 33.1517 344.793 32.6086 345.015 32.1572L346.238 29.7242H347.272L344.533 34.7994C343.936 35.849 343.332 36.5242 342.361 36.5242C342.143 36.5129 341.929 36.4553 341.735 36.3554Z" fill="#544252"/>
<path d="M347.232 32.704C347.232 30.8692 348.573 29.6141 349.908 29.6141C351.001 29.6141 351.724 30.3738 351.724 31.5738C351.724 33.4086 350.382 34.6637 349.044 34.6637C347.943 34.6637 347.232 33.904 347.232 32.704ZM350.649 31.6031C350.649 30.8692 350.352 30.4618 349.793 30.4618C349.022 30.4618 348.31 31.4306 348.31 32.6637C348.31 33.3976 348.607 33.805 349.163 33.805C349.933 33.8086 350.649 32.8398 350.649 31.6105V31.6031Z" fill="#544252"/>
<path d="M356.246 34.5462H355.378L355.426 33.8563H355.386C354.959 34.3119 354.379 34.5987 353.755 34.6636C352.943 34.6636 352.602 34.2196 352.602 33.4453C352.604 33.2181 352.63 32.9918 352.68 32.7701L353.295 29.7242H354.355L353.766 32.6306C353.722 32.7974 353.696 32.9684 353.688 33.1407C353.674 33.2233 353.68 33.3081 353.705 33.3881C353.73 33.4682 353.773 33.5413 353.832 33.6016C353.891 33.6619 353.963 33.7077 354.043 33.7354C354.123 33.7631 354.208 33.7718 354.292 33.7609C354.622 33.7609 355 33.5297 355.493 33.0269L356.145 29.7242H357.209L356.246 34.5462Z" fill="#544252"/>
<path d="M358.692 29.7242H359.559L359.47 30.6526H359.511C359.882 30.0582 360.43 29.6068 360.993 29.6068C361.16 29.5997 361.326 29.6298 361.479 29.6949L361.108 30.6196C360.966 30.5582 360.811 30.5306 360.656 30.5389C360.2 30.5389 359.733 30.9059 359.333 31.6398L358.758 34.5499H357.698L358.692 29.7242Z" fill="#544252"/>
<path d="M364.3 35.0197L364.022 36.4545H362.962L364.326 29.7242H365.193L365.167 30.3151H365.197C365.623 29.9034 366.182 29.6528 366.775 29.6068C367.632 29.6068 368.162 30.2343 368.162 31.3646C368.162 33.1995 366.894 34.6674 365.567 34.6674C365.348 34.6649 365.133 34.6052 364.944 34.4944C364.755 34.3836 364.6 34.2256 364.492 34.0362H364.474L364.3 35.0197ZM365.096 31.1921L364.681 33.2435C364.745 33.4062 364.856 33.5468 364.999 33.6479C365.143 33.749 365.313 33.8061 365.489 33.8123C366.308 33.8123 367.065 32.7664 367.065 31.5261C367.065 30.8252 366.783 30.4949 366.342 30.4949C366.095 30.5141 365.856 30.5865 365.641 30.7069C365.426 30.8274 365.24 30.993 365.096 31.1921Z" fill="#544252"/>
<path d="M371.542 29.6141C372.672 29.6141 373.091 30.3958 373.091 31.3903C373.083 31.7401 373.011 32.0856 372.88 32.4105H369.915C369.815 33.427 370.378 33.8563 371.119 33.8563C371.479 33.833 371.823 33.7053 372.109 33.4894L372.498 34.1609C372.011 34.4963 371.431 34.6744 370.838 34.671C369.678 34.671 368.888 33.9371 368.888 32.6343C368.892 30.8251 370.263 29.6141 371.542 29.6141ZM372.161 31.7426C372.194 31.6042 372.209 31.4626 372.209 31.3206C372.209 30.8545 372.009 30.4325 371.416 30.4325C370.823 30.4325 370.248 30.9206 370.015 31.7426H372.161Z" fill="#544252"/>
<path d="M376.675 31.5591C376.703 31.4524 376.717 31.3426 376.716 31.2325C376.716 30.66 376.449 30.4545 375.953 30.4545C375.501 30.4788 375.064 30.6165 374.681 30.8545L374.348 30.1205C374.91 29.8197 375.536 29.6514 376.175 29.6288C377.176 29.6288 377.769 30.0912 377.769 31.1334C377.766 31.3619 377.738 31.5894 377.687 31.8123L377.139 34.5609H376.275V34.0361H376.242C375.841 34.4197 375.315 34.6477 374.759 34.6783C374.599 34.6866 374.438 34.6617 374.288 34.6053C374.139 34.5489 374.002 34.4622 373.888 34.3507C373.773 34.2392 373.683 34.1054 373.624 33.9577C373.565 33.8101 373.537 33.6518 373.543 33.493C373.566 32.0875 374.889 31.5958 376.675 31.5591ZM374.603 33.2765C374.603 33.6655 374.874 33.8563 375.256 33.8563C375.664 33.8162 376.044 33.6295 376.323 33.3315L376.549 32.2306C375.278 32.2416 374.603 32.6269 374.603 33.2655V33.2765Z" fill="#544252"/>
<path d="M378.658 32.7041C378.658 30.9793 379.933 29.6142 381.449 29.6142C381.694 29.6115 381.936 29.6632 382.158 29.7655C382.38 29.8677 382.576 30.0179 382.732 30.205L382.127 30.8252C382.042 30.7106 381.93 30.6177 381.801 30.5539C381.672 30.4901 381.53 30.4573 381.386 30.4582C380.511 30.4582 379.748 31.46 379.748 32.66C379.748 33.394 380.074 33.8013 380.73 33.8013C381.07 33.787 381.394 33.6575 381.649 33.4344L382.105 34.0986C381.652 34.4577 381.089 34.6544 380.508 34.6564C379.448 34.6637 378.658 33.9518 378.658 32.7041Z" fill="#544252"/>
<path d="M385.56 29.6141C386.672 29.6141 387.109 30.3958 387.109 31.3903C387.099 31.7403 387.026 32.0858 386.894 32.4105H383.929C383.829 33.427 384.396 33.8563 385.133 33.8563C385.493 33.833 385.837 33.7053 386.123 33.4894L386.512 34.1609C386.025 34.4969 385.445 34.6751 384.852 34.671C383.692 34.671 382.906 33.9371 382.906 32.6343C382.91 30.8251 384.266 29.6141 385.56 29.6141ZM386.175 31.7426C386.208 31.6042 386.223 31.4626 386.223 31.3206C386.223 30.8545 386.023 30.4325 385.43 30.4325C384.837 30.4325 384.262 30.9206 384.029 31.7426H386.175Z" fill="#544252"/>
<path d="M387.172 35.6728C387.455 35.6074 387.715 35.4686 387.927 35.2706C388.137 35.0726 388.292 34.8226 388.373 34.5462L388.484 33.6911L388.758 34.4251C388.654 34.5134 388.524 34.5672 388.388 34.5792C388.305 34.5875 388.221 34.5783 388.142 34.5523C388.062 34.5262 387.99 34.484 387.928 34.4282C387.867 34.3725 387.818 34.3045 387.784 34.2287C387.751 34.1529 387.734 34.071 387.735 33.9884C387.731 33.8867 387.748 33.7853 387.786 33.6905C387.823 33.5958 387.88 33.5098 387.953 33.438C388.026 33.3662 388.113 33.3102 388.209 33.2736C388.305 33.2369 388.407 33.2204 388.51 33.2251C388.951 33.2251 389.196 33.5297 389.196 34.0251C389.195 34.5591 389.008 35.0765 388.665 35.4887C388.322 35.9011 387.846 36.1827 387.316 36.2856L387.172 35.6728Z" fill="#544252"/>
<path d="M392.472 32.704C392.472 30.8692 393.818 29.6141 395.152 29.6141C396.245 29.6141 396.964 30.3738 396.964 31.5738C396.964 33.4086 395.623 34.6637 394.288 34.6637C393.195 34.6637 392.472 33.904 392.472 32.704ZM395.893 31.6031C395.893 30.8692 395.597 30.4618 395.037 30.4618C394.262 30.4618 393.554 31.4306 393.554 32.6637C393.554 33.3976 393.851 33.805 394.411 33.805C395.174 33.8086 395.893 32.8398 395.893 31.6105V31.6031Z" fill="#544252"/>
<path d="M401.486 34.5462H400.619L400.667 33.8563H400.63C400.202 34.3127 399.621 34.5996 398.995 34.6636C398.184 34.6636 397.843 34.2196 397.843 33.4453C397.844 33.2179 397.871 32.9914 397.924 32.7701L398.536 29.7242H399.6L399.006 32.6306C398.964 32.7978 398.938 32.9686 398.929 33.1407C398.915 33.2235 398.922 33.3083 398.947 33.3883C398.973 33.4683 399.016 33.5414 399.076 33.6015C399.135 33.6618 399.207 33.7075 399.287 33.7352C399.367 33.7628 399.452 33.7716 399.536 33.7609C399.863 33.7609 400.244 33.5297 400.734 33.0269L401.39 29.7242H402.45L401.486 34.5462Z" fill="#544252"/>
<path d="M403.929 29.7242H404.796L404.711 30.6526H404.748C405.118 30.0581 405.667 29.6067 406.23 29.6067C406.398 29.5991 406.565 29.6293 406.72 29.6948L406.349 30.6196C406.207 30.5586 406.052 30.5309 405.897 30.5388C405.441 30.5388 404.974 30.9058 404.574 31.6398L403.999 34.5499H402.935L403.929 29.7242Z" fill="#544252"/>
<path d="M408.169 35.5298C408.169 34.9353 408.714 34.5426 409.262 34.3004V34.2674C409.167 34.1892 409.092 34.0908 409.041 33.9796C408.991 33.8683 408.966 33.7472 408.969 33.6252C408.987 33.4324 409.054 33.2472 409.165 33.0873C409.275 32.9275 409.425 32.7981 409.6 32.7114V32.66C409.436 32.5266 409.304 32.3584 409.215 32.1678C409.126 31.9772 409.081 31.7691 409.084 31.5591C409.084 31.2945 409.137 31.0325 409.24 30.7886C409.344 30.5448 409.496 30.324 409.688 30.1395C409.879 29.955 410.107 29.8105 410.356 29.7146C410.605 29.6186 410.87 29.5732 411.138 29.5811C411.355 29.5769 411.571 29.6169 411.771 29.6986H413.502L413.35 30.4949H412.505C412.614 30.6718 412.672 30.8749 412.672 31.0821C412.672 32.205 411.809 32.9903 410.604 32.9903C410.442 32.9924 410.28 32.9676 410.126 32.9169C410.043 32.9682 409.974 33.0382 409.925 33.1212C409.875 33.2042 409.846 33.2977 409.84 33.394C409.84 33.6802 410 33.794 410.704 33.871C412.042 34.0362 412.453 34.3665 412.453 34.972C412.453 36.0949 411.219 36.6564 410.011 36.6564C409.244 36.6967 408.169 36.4472 408.169 35.5298ZM411.416 35.2545C411.416 34.8876 411.019 34.7518 410.378 34.6784C410.222 34.6564 410.007 34.6197 409.796 34.5683C409.477 34.7298 409.088 35.005 409.088 35.3389C409.088 35.794 409.492 35.9995 410.126 35.9995C410.867 35.9995 411.416 35.6839 411.416 35.2545ZM411.753 31.1334C411.753 30.649 411.505 30.3518 411.101 30.3518C410.493 30.3518 410.063 30.9646 410.063 31.5738C410.063 32.0582 410.311 32.3555 410.715 32.3555C411.323 32.3555 411.753 31.7426 411.753 31.1334Z" fill="#544252"/>
<path d="M413.51 32.704C413.51 30.8692 414.851 29.6141 416.19 29.6141C417.301 29.6141 418.002 30.3738 418.002 31.5738C418.002 33.4086 416.66 34.6637 415.326 34.6637C414.233 34.6637 413.51 33.904 413.51 32.704ZM416.927 31.6031C416.927 30.8692 416.631 30.4618 416.075 30.4618C415.3 30.4618 414.592 31.4306 414.592 32.6637C414.592 33.3976 414.889 33.805 415.448 33.805C416.212 33.8086 416.927 32.8398 416.927 31.6105V31.6031Z" fill="#544252"/>
<path d="M421.638 31.5591C421.669 31.4529 421.684 31.3429 421.682 31.2325C421.682 30.66 421.412 30.4545 420.919 30.4545C420.468 30.4788 420.03 30.6165 419.648 30.8545L419.314 30.1205C419.877 29.8192 420.502 29.6509 421.141 29.6288C422.142 29.6288 422.731 30.0912 422.731 31.1334C422.729 31.3617 422.704 31.5893 422.653 31.8123L422.101 34.5609H421.241V34.0361H421.208C420.808 34.4197 420.281 34.6477 419.725 34.6783C419.565 34.6865 419.404 34.6617 419.254 34.6053C419.104 34.5489 418.967 34.4623 418.853 34.3509C418.738 34.2394 418.648 34.1057 418.588 33.958C418.529 33.8103 418.5 33.652 418.506 33.493C418.528 32.0875 419.848 31.5958 421.638 31.5591ZM419.566 33.2765C419.566 33.6655 419.84 33.8563 420.222 33.8563C420.63 33.8166 421.008 33.6298 421.286 33.3315L421.516 32.2306C420.244 32.2416 419.566 32.6269 419.566 33.2655V33.2765Z" fill="#544252"/>
<path d="M424.918 27.6215H425.982L424.577 34.5463H423.517L424.918 27.6215Z" fill="#544252"/>
<path d="M426.946 10.7223L428.072 6.82507H413.576L411.241 10.7223H426.946Z" fill="#544252"/>
<path d="M425.3 16.4252L426.527 12.1793H412.027L408.988 22.6894H423.487L424.659 18.6344H416.501L417.142 16.4252H425.3Z" fill="#544252"/>
<path d="M408.873 10.7224L411.204 6.83246H399.344C398.231 6.831 397.148 7.18832 396.259 7.85044C395.369 8.51254 394.722 9.44336 394.414 10.5022L394.351 10.7187L408.873 10.7224Z" fill="#544252"/>
<path d="M393.944 12.1793L392.368 17.6509C392.199 18.2392 392.169 18.8586 392.282 19.4602C392.395 20.0618 392.648 20.6292 393.02 21.1177C393.392 21.6061 393.874 22.0024 394.427 22.2751C394.98 22.5479 395.59 22.6897 396.208 22.6894H405.415L406.586 18.6527H397.809L399.663 12.1977L393.944 12.1793Z" fill="#544252"/>
<path d="M377.465 12.1793L368.336 22.6894H375.3L380.741 16.4252H384.24L385.723 22.6894H391.927L389.437 12.1793H377.465Z" fill="#544252"/>
<path d="M389.092 10.7223L388.169 6.82874L388.173 6.82507H382.116L378.729 10.7223H389.092Z" fill="#544252"/>
<path d="M370.671 16.4252L371.901 12.1793H357.402L354.363 22.6894H368.862L370.033 18.6344H361.876L362.517 16.4252H370.671Z" fill="#544252"/>
<path d="M372.32 10.7223L373.447 6.82507H358.951L356.616 10.7223H372.32Z" fill="#544252"/>
<path d="M337.806 12.1793L334.767 22.6894H340.226L342.039 16.4252H349.452C350.765 16.424 352.045 16.0131 353.109 15.251C354.174 14.4889 354.969 13.4141 355.382 12.1793H337.806Z" fill="#544252"/>
<path d="M355.804 10.7223C355.897 10.2486 355.883 9.76045 355.763 9.29274C355.643 8.82504 355.42 8.38937 355.111 8.01696C354.801 7.64452 354.411 7.34456 353.971 7.1385C353.53 6.93245 353.049 6.8254 352.561 6.82507H339.352L337.02 10.7223H355.804Z" fill="#544252"/>
<path d="M321.943 10.7223C322.035 10.2484 322.02 9.76016 321.9 9.29245C321.779 8.82478 321.556 8.38922 321.246 8.01689C320.936 7.64456 320.546 7.34467 320.105 7.13861C319.665 6.9326 319.183 6.82555 318.696 6.82507H305.416L303.095 10.7223H321.943Z" fill="#544252"/>
<path d="M321.524 12.1793H303.866L300.827 22.6894H306.29L308.099 16.4252H314.293L312.484 22.6894H317.943L319.159 18.4802C319.299 18.0024 319.311 17.4969 319.196 17.0128C319.08 16.5286 318.84 16.0823 318.499 15.7169C319.933 14.9712 321.017 13.7026 321.524 12.1793Z" fill="#544252"/>
<path d="M300.89 10.7225L302.009 6.84723H296.205L295.086 10.7225H300.89Z" fill="#544252"/>
<path d="M289.682 10.7225L288.792 6.84723H282.74L279.289 10.7225H289.682Z" fill="#544252"/>
<path d="M294.663 12.1793L292.069 21.1591L290.012 12.1793H277.996L274.523 16.0839H284.841L286.569 22.6894H297.428L300.468 12.1793H294.663Z" fill="#544252"/>
<path d="M267.143 16.7297C267.122 16.419 267.079 16.1101 267.017 15.805C266.973 15.5958 266.932 15.4673 266.88 15.2288C266.182 11.7938 264.385 8.6731 261.754 6.32973C261.677 6.2618 261.595 6.19927 261.509 6.14257C260.931 5.63248 260.331 5.14073 259.712 4.67468C256.834 2.45077 253.455 0.949897 249.864 0.300363C247.735 -0.0650722 245.561 -0.0972686 243.422 0.204951C241.427 0.496367 239.476 1.02623 237.61 1.78293C234.869 2.83237 232.454 4.57464 230.605 6.83615L230.464 7.01229C230.45 7.03292 230.434 7.05251 230.416 7.07101C230.161 7.37361 229.922 7.68969 229.701 8.0178C229.691 8.02998 229.678 8.03894 229.664 8.04349C229.115 8.83248 228.552 9.74991 228.496 9.84899C227.03 12.3104 226.094 15.0453 225.746 17.882C225.325 21.4283 226.05 25.0155 227.818 28.1279C227.925 28.3187 228.033 28.4949 228.155 28.693C228.251 28.8879 228.376 29.0673 228.526 29.2251C227.229 26.7867 226.522 24.0832 226.461 21.3279V21.104C226.461 20.9646 226.461 20.8251 226.461 20.6894C226.507 19.2423 226.739 17.807 227.151 16.4178C227.656 14.7522 228.392 13.164 229.338 11.6985C229.338 11.6985 229.404 11.5921 229.527 11.4086C230.036 10.6529 230.592 9.92862 231.191 9.23982C231.206 9.21974 231.224 9.20132 231.243 9.18477C231.521 8.86183 231.821 8.53156 232.143 8.20495L232.162 8.18661C232.421 7.92972 232.688 7.67284 232.97 7.43064C233.898 6.5702 234.917 5.81112 236.009 5.16642C238.374 3.81483 240.994 2.95917 243.707 2.65266C245.728 2.39474 247.776 2.4517 249.778 2.82146C252.165 3.26372 254.445 4.15303 256.495 5.44165C258.391 6.63714 260.105 8.09538 261.583 9.77193C261.611 9.80415 261.642 9.83361 261.676 9.86C264.393 13.1628 265.142 18.0545 265.171 18.271C265.223 19.0563 265.245 19.8417 265.234 20.6343C265.234 20.8618 265.234 21.093 265.234 21.3242C265.172 23.1652 264.882 24.9916 264.371 26.7628C263.35 30.3309 261.141 33.4528 258.103 35.6215C255.747 37.2822 253.111 38.516 250.32 39.2653C249.578 39.4745 248.837 39.6543 248.077 39.8525C248.148 39.8565 248.218 39.8565 248.289 39.8525C248.848 39.7571 249.4 39.6653 249.964 39.5479C252.412 39.0521 254.774 38.2066 256.976 37.0378C259.311 35.8091 261.37 34.1252 263.029 32.0875C265.679 28.7848 266.906 24.9866 267.169 20.8325C267.27 19.4663 267.261 18.0945 267.143 16.7297Z" fill="#544252"/>
<path d="M276.001 6.14254C276.004 6.08434 275.992 6.02643 275.967 5.97355C275.943 5.92071 275.905 5.87443 275.859 5.83858C275.813 5.80272 275.759 5.77832 275.701 5.76735C275.643 5.75641 275.583 5.7592 275.527 5.77557L274.167 5.97373C272.268 6.24489 270.395 6.6683 268.566 7.23979C267.609 7.53931 266.669 7.88841 265.749 8.28566C265.698 8.30768 265.62 8.38841 265.549 8.37006L264.982 8.63061L264.934 8.6563C264.512 8.84713 264.1 9.06731 263.678 9.26548C261.811 10.1561 260.172 11.4518 258.881 13.0563C257.459 14.8226 256.207 16.7171 255.142 18.715C254.793 19.3499 254.46 19.9884 254.115 20.6269C253.67 21.5664 252.521 21.1113 252.025 20.8581C251.944 20.8232 251.867 20.7801 251.795 20.7297C251.687 20.66 251.584 20.5866 251.476 20.5279C249.826 19.6198 248.024 19.012 246.157 18.7334C243.988 18.4386 241.78 18.6011 239.678 19.2104C238.567 19.526 237.429 19.871 236.343 20.26C236.109 20.3444 235.36 20.6269 233.804 21.2324L233.615 21.3095L233.541 21.3389C233.433 21.3829 233.322 21.4269 233.218 21.4747C233.2 21.4964 233.176 21.5136 233.15 21.5251C233.124 21.5365 233.095 21.5419 233.066 21.5407L232.696 21.7169C232.325 21.8967 231.954 22.0838 231.584 22.2673C230.709 22.7517 230.112 23.1187 230.079 23.1444C229.436 23.5603 228.841 24.0439 228.303 24.5866C229.015 24.4838 229.679 24.3847 230.346 24.2967C233.052 23.8879 235.788 23.7037 238.526 23.7462C240.06 23.7606 241.584 23.9929 243.051 24.4361C244.07 24.734 244.996 25.2832 245.742 26.0324C245.872 26.1719 245.864 26.2269 245.672 26.2747C245.249 26.3811 244.838 26.5132 244.415 26.6159C243.129 26.9315 241.821 27.1664 240.549 27.5444C239.988 27.6784 239.455 27.9095 238.974 28.2269C238.411 28.6416 238.392 28.737 238.863 29.2838C239.344 29.7754 239.95 30.1302 240.616 30.3113C242.234 30.8187 243.901 31.1581 245.59 31.3242C245.746 31.3242 245.761 31.2985 245.713 31.1701C245.605 30.8892 245.545 30.593 245.535 30.293C245.509 30.0392 245.575 29.7845 245.721 29.5742C245.867 29.3639 246.083 29.2116 246.332 29.1444C246.766 29.0004 247.217 28.9068 247.673 28.8655C248.652 28.7664 249.638 28.7811 250.616 28.6636C251.914 28.535 253.181 28.1901 254.363 27.6435C255.656 26.9694 256.818 26.0736 257.795 24.9976C258.685 24.0753 259.568 23.1493 260.446 22.2196C260.583 22.0728 260.686 22.0251 260.876 22.1425C261.065 22.26 261.357 22.3847 261.595 22.5095C261.709 22.5719 261.769 22.5792 261.769 22.4178C261.783 22.0037 261.755 21.5893 261.684 21.1811C261.654 20.926 261.573 20.6793 261.446 20.4556C261.318 20.2319 261.147 20.0356 260.942 19.8783C260.755 19.734 260.535 19.6363 260.302 19.5935C260.068 19.5507 259.828 19.564 259.6 19.6324C259.626 19.548 259.641 19.4857 259.66 19.4269C260.001 18.4535 260.427 17.5117 260.935 16.6123C261.459 15.6726 262.157 14.8387 262.992 14.1535C263.046 14.1054 263.109 14.0688 263.178 14.046C263.247 14.0233 263.32 14.0149 263.392 14.0214C263.585 14.0367 263.778 13.9984 263.951 13.9109C264.123 13.8234 264.267 13.6901 264.367 13.526C264.486 13.3462 264.534 13.1407 264.641 12.9389C264.96 13.5187 265.505 13.6324 266.076 13.6471C266.362 13.6631 266.645 13.5727 266.867 13.3935C267.09 13.2143 267.237 12.9593 267.28 12.6783C267.836 13.0233 268.088 12.9939 268.348 12.5169C268.455 12.315 268.559 12.2013 268.804 12.2343C268.919 12.2366 269.032 12.196 269.119 12.1205C269.317 11.9724 269.457 11.7611 269.515 11.5224C269.556 11.3939 269.593 11.3756 269.715 11.4453C269.826 11.5148 269.955 11.5516 270.086 11.5516C270.217 11.5516 270.346 11.5148 270.457 11.4453C270.649 11.3199 270.806 11.1482 270.913 10.9462C270.972 10.8435 271.016 10.7958 271.157 10.8251C271.253 10.8641 271.357 10.8802 271.46 10.872C271.564 10.8638 271.664 10.8316 271.752 10.7779C271.841 10.7243 271.915 10.6508 271.97 10.5633C272.024 10.4759 272.057 10.377 272.065 10.2747C272.073 10.2201 272.097 10.1691 272.134 10.1279C272.17 10.0868 272.219 10.0574 272.273 10.0435C272.49 9.98511 272.678 9.85131 272.803 9.66661C272.928 9.48195 272.982 9.25872 272.955 9.03795C272.953 8.92489 272.943 8.81212 272.925 8.70034C272.925 8.63795 272.925 8.57924 272.992 8.57557C273.066 8.58449 273.14 8.57696 273.211 8.55355C273.209 8.53157 273.209 8.50948 273.211 8.48749L273.244 8.53153C273.296 8.50122 273.341 8.4599 273.376 8.41043C273.411 8.36096 273.434 8.3046 273.444 8.24529C273.444 8.24529 273.444 8.24529 273.444 8.22327C273.442 8.20863 273.442 8.19384 273.444 8.17924C273.462 7.97964 273.433 7.77865 273.359 7.59208C273.748 7.6508 274.1 7.71318 274.441 7.75355C274.6 7.77931 274.763 7.76749 274.916 7.71902C275.069 7.67054 275.209 7.5868 275.323 7.47465C275.583 7.22716 275.792 6.93172 275.938 6.60493C275.998 6.45858 276.02 6.29946 276.001 6.14254Z" fill="#544252"/>
</g>
<g clip-path="url(#clip2)">
<path d="M562.875 32.82V4.74824H567.993V17.4689L578.538 4.70898H584.04L572.649 18.1363L584.618 32.82H578.576L567.993 19.7068V32.82H562.875Z" fill="#544252"/>
<path d="M598.202 4.70956C598.157 4.70918 598.111 4.70898 598.066 4.70898C589.981 4.70898 584.098 10.5887 584.098 18.7959C584.098 27.003 589.981 32.8828 598.066 32.8828C605.3 32.8828 610.787 28.1266 611.819 21.1987H605.897C605.056 25.036 602.174 27.738 598.066 27.738C593.103 27.738 589.941 23.859 589.941 18.7959C589.941 13.6919 593.103 9.85377 598.066 9.85377C598.111 9.85377 598.157 9.8541 598.202 9.85478V4.70956Z" fill="#544252"/>
<path fill-rule="evenodd" clip-rule="evenodd" d="M545.495 32.8828C553.54 32.8828 559.423 27.003 559.423 18.7959C559.423 10.5887 553.54 4.70898 545.495 4.70898C537.411 4.70898 531.528 10.5887 531.528 18.7959C531.528 27.003 537.411 32.8828 545.495 32.8828ZM545.495 27.738C540.533 27.738 537.371 23.859 537.371 18.7959C537.371 13.6919 540.533 9.85377 545.495 9.85377C550.418 9.85377 553.58 13.6919 553.58 18.7959C553.58 23.859 550.418 27.738 545.495 27.738Z" fill="#544252"/>
<path d="M503.392 5.15826V32.3929H497.709V5.15826H503.392Z" fill="#544252"/>
<path fill-rule="evenodd" clip-rule="evenodd" d="M523.5 22.0217L529.543 32.3929H522.98L517.737 22.7159H513.575V32.3929H507.891V5.15826H520.378C525.941 5.15826 529.383 8.87393 529.383 13.937C529.383 18.7143 526.382 21.3276 523.5 22.0217ZM513.575 17.6119H519.578C521.819 17.6119 523.54 16.2236 523.54 13.8962C523.54 11.6505 521.819 10.2622 519.578 10.2622H513.575V17.6119Z" fill="#544252"/>
<path d="M607.066 19.4542V7.47232H611.269V4.70898H599.742V7.47232H603.966V19.4542H607.066Z" fill="#544252"/>
<path d="M619.2 19.4542L624.769 4.70898H621.281L617.272 16.0276L613.263 4.70898H609.774L615.344 19.4542H619.2Z" fill="#544252"/>
</g>
<g clip-path="url(#clip3)">
<path d="M759.058 51.9999C794.127 51.9999 822.554 40.3569 822.554 26.0043C822.554 11.643 794.127 0 759.058 0C723.989 0 695.554 11.643 695.554 26.0043C695.554 40.3569 723.989 51.9999 759.058 51.9999Z" fill="#544252"/>
<path d="M775.237 19.5897L776.906 13.002H755.148L753.488 19.5897H760.609L757.114 33.4316H764.611L768.106 19.5897H775.237Z" fill="white"/>
<path d="M753.278 13.002H742.425L735.513 28.1423V13.002H725.001L718.421 38.9976H725.648L729.929 22.2212V38.9976H735.513L743.736 22.2212L739.795 38.9976H746.698L753.278 13.002Z" fill="white"/>
<path d="M800.149 13.002H793.246L789.637 26.8352L786.343 13.002H778.776L772.205 38.9976H779.116L782.725 24.8529L786.343 38.9976H793.578L800.149 13.002Z" fill="white"/>
<path d="M756.642 35.284L755.698 38.9977H763.204L764.139 35.284H756.642Z" fill="white"/>
</g>
<g clip-path="url(#clip4)">
<path fill-rule="evenodd" clip-rule="evenodd" d="M912.784 36.0565L918.51 20.6878C919.646 17.9726 921.409 17.8964 921.609 17.8972C922.779 17.9139 924.376 17.2511 926.581 15.3384C926.739 15.2019 926.899 15.0584 927.063 14.9091L927.251 14.7356C930.154 12.2566 933.146 11.4101 935.369 11.4101C938.815 11.4101 940.786 12.6726 941.059 15.6658C943.623 12.7662 947.335 11.4101 950.351 11.4101C956.43 11.4101 956.637 15.4786 954.634 20.8571L948.972 36.0565H942.558L947.907 21.6986C948.743 19.4543 949.927 16.2737 946.242 16.2737C941.982 16.2737 939.608 21.2309 938.44 24.3651L934.085 36.0566H927.671L933.02 21.6988C933.857 19.4544 935.041 16.274 931.355 16.274C927.095 16.274 924.722 21.2311 923.554 24.3652L919.199 36.0568H912.784V36.0565Z" fill="#544252"/>
<path fill-rule="evenodd" clip-rule="evenodd" d="M951.156 36.0565L960.129 11.9712H966.543L957.57 36.0565H951.156Z" fill="#544252"/>
<path d="M918.674 11.8522C919.196 11.9522 919.765 12.0764 920.37 12.2311L920.659 12.2989C921.231 12.4594 921.839 12.641 922.465 12.8554C919.017 16.8439 913.695 16.0387 913.695 16.0387L913.357 15.9874H912.804C911.054 15.9933 908.714 16.6014 907.763 18.6595C905.991 22.4948 918.268 20.0624 914.249 28.7611C911.655 34.3738 905.497 36.6178 900.279 36.6178C897.838 36.6178 895.543 36.1976 893.478 35.5894L895.393 32.0215H901.263C901.447 32.0304 901.634 32.0347 901.823 32.0347C903.45 32.0347 906.316 31.4271 907.396 29.0885C909.579 24.3651 896.935 27.5913 900.954 18.893C903.352 13.7018 909.055 11.4101 914.081 11.4101C916.017 11.4101 917.43 11.6033 918.674 11.8522Z" fill="#544252"/>
<path fill-rule="evenodd" clip-rule="evenodd" d="M979.262 0.980164L968.005 31.1969C966.079 35.5608 961.118 36.0106 960.15 36.0572L959.781 36.0564L972.848 0.980164H979.262Z" fill="#544252"/>
<path fill-rule="evenodd" clip-rule="evenodd" d="M979.193 21.652H990.106C991.047 18.6122 990.588 15.9933 986.998 15.9933C983.407 15.9933 980.682 18.4252 979.193 21.652ZM982.362 32.0347C982.552 32.0347 982.742 32.0304 982.932 32.0222H990.551L989.554 34.7002C986.738 35.9632 983.813 36.6178 980.367 36.6178C972.229 36.6178 969.198 32.0347 972.142 24.1309C974.738 17.1625 980.663 11.4101 988.322 11.4101C997.465 11.4101 997.767 17.5367 994.631 25.9549H977.59C976.431 29.837 978.388 32.0347 982.362 32.0347Z" fill="#544252"/>
<path fill-rule="evenodd" clip-rule="evenodd" d="M960.763 10.2128L962.305 6.07441C962.59 5.36755 963.37 4.22577 966.699 4.22577H969.407L969.206 4.76423C967.058 10.1911 961.122 10.2117 961.122 10.2117L960.763 10.2128Z" fill="#544252"/>
</g>
<defs>
<clipPath id="clip0">
<rect width="156" height="35" fill="white"/>
</clipPath>
<clipPath id="clip1">
<rect width="202" height="40" fill="white" transform="translate(226)"/>
</clipPath>
<clipPath id="clip2">
<rect width="128" height="37" fill="white" transform="translate(498)"/>
</clipPath>
<clipPath id="clip3">
<rect width="127" height="52" fill="white" transform="translate(696)"/>
</clipPath>
<clipPath id="clip4">
<rect width="103" height="37" fill="white" transform="translate(893)"/>
</clipPath>
</defs>
</svg>
