<svg width="611" height="562" viewBox="0 0 611 562" fill="none" xmlns="http://www.w3.org/2000/svg">
<path d="M556 413.4H56V413.65H556V413.4Z" fill="#658CC8"/>
<path d="M505.9 429.49H472.78V429.74H505.9V429.49Z" fill="#658CC8"/>
<path d="M387.22 432.21H378.53V432.46H387.22V432.21Z" fill="#658CC8"/>
<path d="M471.78 420.21H452.59V420.46H471.78V420.21Z" fill="#658CC8"/>
<path d="M151.65 421.89H108.46V422.14H151.65V421.89Z" fill="#658CC8"/>
<path d="M166.89 421.89H160.56V422.14H166.89V421.89Z" fill="#658CC8"/>
<path d="M281.15 426.11H187.47V426.36H281.15V426.11Z" fill="#658CC8"/>
<path d="M293 368.8H99.91C98.3974 368.797 96.9476 368.195 95.8789 367.124C94.8102 366.053 94.21 364.603 94.21 363.09V91.66C94.2232 90.156 94.8292 88.718 95.8965 87.6582C96.9637 86.5985 98.406 86.0026 99.91 86H293C294.514 86 295.967 86.6016 297.038 87.6724C298.108 88.7433 298.71 90.1956 298.71 91.71V363.09C298.71 364.604 298.108 366.057 297.038 367.128C295.967 368.198 294.514 368.8 293 368.8ZM99.91 86.2C98.4637 86.2026 97.0775 86.7791 96.0557 87.8027C95.0339 88.8264 94.46 90.2136 94.46 91.66V363.09C94.46 364.536 95.0339 365.924 96.0557 366.947C97.0775 367.971 98.4637 368.547 99.91 368.55H293C294.447 368.547 295.835 367.971 296.858 366.948C297.881 365.924 298.457 364.537 298.46 363.09V91.66C298.457 90.2127 297.881 88.8255 296.858 87.8021C295.835 86.7787 294.447 86.2026 293 86.2H99.91Z" fill="#658CC8"/>
<path d="M509.31 368.8H316.21C314.696 368.797 313.246 368.195 312.175 367.125C311.105 366.054 310.503 364.604 310.5 363.09V91.66C310.516 90.1551 311.124 88.7171 312.193 87.6576C313.262 86.5981 314.705 86.0025 316.21 86H509.31C510.812 86.0052 512.252 86.6022 513.317 87.6617C514.382 88.7212 514.987 90.1578 515 91.66V363.09C515 364.601 514.401 366.05 513.335 367.121C512.268 368.191 510.821 368.795 509.31 368.8ZM316.21 86.2C314.763 86.2026 313.375 86.7787 312.352 87.8021C311.329 88.8255 310.753 90.2127 310.75 91.66V363.09C310.753 364.537 311.329 365.924 312.352 366.948C313.375 367.971 314.763 368.547 316.21 368.55H509.31C510.757 368.547 512.145 367.971 513.168 366.948C514.191 365.924 514.767 364.537 514.77 363.09V91.66C514.767 90.2127 514.191 88.8255 513.168 87.8021C512.145 86.7787 510.757 86.2026 509.31 86.2H316.21Z" fill="#658CC8"/>
<path d="M365.49 407.57H344.38L355.48 317.2C355.747 315.313 356.673 313.581 358.096 312.312C359.518 311.043 361.345 310.32 363.25 310.27H455.35L441.85 407.57H365.49Z" fill="#D5ABF7"/>
<path d="M432.43 407.57H453.54L464.64 317.2C464.777 316.331 464.721 315.443 464.476 314.598C464.231 313.753 463.803 312.972 463.223 312.311C462.643 311.65 461.925 311.124 461.119 310.772C460.313 310.419 459.439 310.248 458.56 310.27H451.31C449.403 310.318 447.574 311.04 446.15 312.309C444.725 313.578 443.797 315.311 443.53 317.2L432.43 407.57Z" fill="#8C8CA2"/>
<path d="M424.66 407.47L428.48 363.75C428.568 362.807 428.974 361.921 429.632 361.24C430.29 360.558 431.16 360.121 432.1 360L433.68 359.8C434.937 359.641 436.102 359.059 436.985 358.151C437.868 357.242 438.416 356.061 438.54 354.8L439.23 346.8C439.298 346.028 439.205 345.251 438.956 344.517C438.708 343.783 438.31 343.109 437.787 342.538C437.264 341.966 436.628 341.509 435.919 341.196C435.211 340.883 434.445 340.721 433.67 340.72H468.94C469.716 340.72 470.483 340.881 471.192 341.193C471.902 341.505 472.539 341.962 473.063 342.534C473.587 343.106 473.986 343.78 474.235 344.515C474.484 345.249 474.578 346.027 474.51 346.8L473.81 354.8C473.688 356.061 473.14 357.244 472.257 358.153C471.374 359.061 470.207 359.642 468.95 359.8L467.38 360C466.437 360.122 465.564 360.562 464.906 361.247C464.248 361.933 463.843 362.823 463.76 363.77L459.93 407.49C459.795 409.026 459.09 410.456 457.954 411.498C456.817 412.54 455.332 413.118 453.79 413.12H418.51C420.056 413.118 421.545 412.537 422.684 411.491C423.822 410.445 424.527 409.01 424.66 407.47Z" fill="#544252"/>
<path d="M327.58 352.81C327.29 349.499 325.769 346.416 323.318 344.171C320.867 341.925 317.664 340.68 314.34 340.68H345.05C348.374 340.68 351.577 341.925 354.028 344.171C356.479 346.416 358 349.499 358.29 352.81L361.29 387.46H330.61L327.58 352.81Z" fill="#544252"/>
<path d="M300.7 340.68H314.34C317.664 340.68 320.868 341.925 323.318 344.171C325.769 346.416 327.29 349.499 327.58 352.81L330.58 387.46H403.72L406.72 352.81C407.013 349.493 408.54 346.406 410.999 344.16C413.458 341.914 416.67 340.672 420 340.68H433.65C434.425 340.681 435.191 340.843 435.899 341.156C436.608 341.469 437.244 341.926 437.767 342.498C438.29 343.069 438.688 343.743 438.936 344.477C439.185 345.211 439.278 345.988 439.21 346.76L438.52 354.76C438.396 356.021 437.848 357.202 436.965 358.111C436.082 359.019 434.917 359.601 433.66 359.76L432.08 359.96C431.137 360.082 430.264 360.522 429.606 361.207C428.948 361.893 428.543 362.783 428.46 363.73L424.64 407.45C424.503 408.987 423.796 410.417 422.658 411.458C421.519 412.5 420.033 413.079 418.49 413.08H315.85C314.308 413.078 312.823 412.5 311.686 411.458C310.55 410.416 309.845 408.986 309.71 407.45L305.88 363.73C305.797 362.783 305.392 361.893 304.734 361.207C304.076 360.522 303.203 360.082 302.26 359.96L300.69 359.76C299.433 359.602 298.266 359.021 297.383 358.113C296.5 357.204 295.952 356.021 295.83 354.76L295.13 346.76C295.062 345.987 295.156 345.209 295.405 344.475C295.654 343.74 296.053 343.066 296.577 342.494C297.101 341.922 297.738 341.465 298.448 341.153C299.157 340.841 299.925 340.68 300.7 340.68Z" fill="#D5ABF7"/>
<path d="M148.51 162.35C148.51 162.35 147.34 154.62 152.97 149.67C158.6 144.72 158.11 141.77 156.5 141.38C154.89 140.99 153.41 145.95 150.93 147.31C150.93 147.31 150.85 140.25 153.37 137.65C155.89 135.05 157.21 128.35 154.81 128.24C152.41 128.13 152.17 132.24 151.67 135.12C151.17 138 148.51 142.12 148.51 142.12C148.51 142.12 147.99 135.81 146.36 133.2C144.73 130.59 149.07 124.66 147.36 122.06C145.65 119.46 142.76 124.4 143 130C143.24 135.6 147 141.52 146.1 147.34C146.1 147.34 144.46 143.26 142.99 142.89C141.52 142.52 139.99 139.81 139.04 138.81C138.09 137.81 136.81 141.28 139.04 144.5C141.27 147.72 147 156.3 146.1 163.26L148.51 162.35Z" fill="#544252"/>
<path d="M151.88 158.83L153.73 170.41C153.863 171.252 153.812 172.112 153.581 172.932C153.349 173.752 152.943 174.512 152.39 175.16C151.837 175.808 151.15 176.329 150.377 176.686C149.604 177.043 148.762 177.229 147.91 177.23H145.91C145.058 177.229 144.217 177.044 143.444 176.686C142.671 176.329 141.985 175.808 141.433 175.16C140.88 174.511 140.475 173.751 140.245 172.931C140.015 172.111 139.966 171.251 140.1 170.41L142 158.83H151.88Z" fill="#544252"/>
<path d="M123.97 179.66L254.41 179.66V172.96L123.97 172.96V179.66Z" fill="#658CC8"/>
<path d="M242.65 172.95H248.4V148.25H242.65V172.95Z" fill="#658CC8"/>
<path d="M214.87 172.95H220.62V148.25H214.87V172.95Z" fill="#658CC8"/>
<path d="M179.127 171.977L184.793 172.954L188.989 148.613L183.323 147.636L179.127 171.977Z" fill="#658CC8"/>
<path d="M235.53 172.96H241.28V151.51H235.53V172.96Z" fill="#658CC8"/>
<path d="M222.32 172.96H228.07V151.51H222.32V172.96Z" fill="#658CC8"/>
<path d="M188.99 172.96H194.74V151.51H188.99V172.96Z" fill="#658CC8"/>
<path d="M202.679 171.693L208.292 172.941L212.945 152.002L207.332 150.754L202.679 171.693Z" fill="#658CC8"/>
<path d="M230.57 172.96H233.44V147.03H230.57V172.96Z" fill="#658CC8"/>
<path d="M196.39 172.96H199.26V147.03H196.39V172.96Z" fill="#658CC8"/>
<path d="M254.41 222.98H123.97V229.68H254.41V222.98Z" fill="#658CC8"/>
<path d="M135.72 198.28H129.97V222.98H135.72V198.28Z" fill="#658CC8"/>
<path d="M163.51 198.28H157.76V222.98H163.51V198.28Z" fill="#658CC8"/>
<path d="M195.051 197.66L189.384 198.637L193.58 222.978L199.246 222.001L195.051 197.66Z" fill="#658CC8"/>
<path d="M142.84 201.54H137.09V222.99H142.84V201.54Z" fill="#658CC8"/>
<path d="M156.05 201.54H150.3V222.99H156.05V201.54Z" fill="#658CC8"/>
<path d="M189.39 201.54H183.64V222.99H189.39V201.54Z" fill="#658CC8"/>
<path d="M171.061 200.796L165.448 202.044L170.102 222.983L175.715 221.735L171.061 200.796Z" fill="#658CC8"/>
<path d="M147.81 197.05H144.94V222.98H147.81V197.05Z" fill="#658CC8"/>
<path d="M181.99 197.05H179.12V222.98H181.99V197.05Z" fill="#658CC8"/>
<path d="M241.89 203.43H213.89V222.76H241.89V203.43Z" fill="#658CC8"/>
<path d="M466.33 155.21H354.14V279.29H466.33V155.21Z" fill="#658CC8"/>
<path d="M469.91 155.21H353.55V279.29H469.91V155.21Z" fill="#D9E2F1"/>
<path d="M464.99 159.17H358.29V273.59H464.99V159.17Z" fill="white"/>
<path d="M464.99 159.17H461.9V273.59H464.99V159.17Z" fill="#658CC8"/>
<path d="M358.01 241.44V244.53H462.23V241.44H358.01Z" fill="#658CC8"/>
<path d="M464.99 236.27H356.63V241.45H464.99V236.27Z" fill="#D9E2F1"/>
<path d="M306 458.56C413.082 458.56 499.89 453.492 499.89 447.24C499.89 440.988 413.082 435.92 306 435.92C198.917 435.92 112.11 440.988 112.11 447.24C112.11 453.492 198.917 458.56 306 458.56Z" fill="#D9E2F1"/>
<path d="M383.17 430.75C383.312 430.444 383.379 430.109 383.365 429.772C383.351 429.435 383.257 429.106 383.091 428.813C382.925 428.52 382.691 428.27 382.409 428.085C382.127 427.9 381.805 427.785 381.47 427.75C381.773 426.87 381.797 425.917 381.539 425.023C381.282 424.128 380.755 423.334 380.03 422.75C379.859 422.592 379.642 422.493 379.41 422.47C379.16 422.496 378.925 422.601 378.74 422.77L374.74 425.61C374.423 425.806 374.156 426.073 373.96 426.39C373.15 427.96 376.06 429.97 374.86 431.26C374.52 431.63 373.97 431.71 373.54 431.98C372.59 432.57 372.48 433.86 372.04 434.88C371.6 435.9 370.04 436.7 369.48 435.75C369.91 434.75 368.61 433.93 367.54 433.81C366.47 433.69 365.37 433.62 364.78 432.63C363.27 433.94 359.89 430.26 359.97 428.78C359.374 428.887 358.826 429.178 358.403 429.612C357.98 430.046 357.702 430.601 357.61 431.2C357.436 432.425 357.393 433.665 357.48 434.9C357.48 437.3 356.67 439.65 356.71 442.05C356.71 443.92 357.47 446 359.18 446.75C360.033 447.051 360.938 447.173 361.84 447.11L381.33 446.98C381.798 447.015 382.267 446.939 382.7 446.76C383.58 446.3 383.76 445.14 383.84 444.15L384.89 431.45L383.17 430.75Z" fill="#658CC8"/>
<path opacity="0.3" d="M383.17 430.75C383.312 430.444 383.379 430.109 383.365 429.772C383.351 429.435 383.257 429.106 383.091 428.813C382.925 428.52 382.691 428.27 382.409 428.085C382.127 427.9 381.805 427.785 381.47 427.75C381.773 426.87 381.797 425.917 381.539 425.023C381.282 424.128 380.755 423.334 380.03 422.75C379.859 422.592 379.642 422.493 379.41 422.47C379.16 422.496 378.925 422.601 378.74 422.77L374.74 425.61C374.423 425.806 374.156 426.073 373.96 426.39C373.15 427.96 376.06 429.97 374.86 431.26C374.52 431.63 373.97 431.71 373.54 431.98C372.59 432.57 372.48 433.86 372.04 434.88C371.6 435.9 370.04 436.7 369.48 435.75C369.91 434.75 368.61 433.93 367.54 433.81C366.47 433.69 365.37 433.62 364.78 432.63C363.27 433.94 359.89 430.26 359.97 428.78C359.374 428.887 358.826 429.178 358.403 429.612C357.98 430.046 357.702 430.601 357.61 431.2C357.436 432.425 357.393 433.665 357.48 434.9C357.48 437.3 356.67 439.65 356.71 442.05C356.71 443.92 357.47 446 359.18 446.75C360.033 447.051 360.938 447.173 361.84 447.11L381.33 446.98C381.798 447.015 382.267 446.939 382.7 446.76C383.58 446.3 383.76 445.14 383.84 444.15L384.89 431.45L383.17 430.75Z" fill="white"/>
<path d="M384.3 410.15H354.06L354.31 413.21L354.49 415.39L354.95 421.06L355.21 424.33L355.56 428.67L355.71 430.53L355.76 431.08L355.94 433.27L356.18 436.27L356.33 438.13L356.48 440.02L356.66 442.21L356.8 443.87L356.95 445.73L357.01 446.54H384.76L384.83 445.73L384.98 443.87L385.11 442.2L385.29 440.01L385.45 438.13L385.6 436.27L385.84 433.27L386.02 431.09V430.54L386.17 428.68L386.52 424.34L386.79 421.08L387.24 415.4L387.42 413.22L387.67 410.16L384.3 410.15ZM386.12 412.15L385.54 411.57H386.17L386.12 412.15ZM386 414L385.95 414.74L383.24 417.44L380.13 414.34L382.91 411.56H383.57L386 414ZM385.22 423.68L383.22 425.68L380.11 422.57L383.22 419.48L385.36 421.62L385.22 423.68ZM356.44 421.6L358.59 419.46L361.69 422.55L358.59 425.66L356.59 423.66L356.44 421.6ZM382.24 418.45L379.13 421.55L376.03 418.45L379.13 415.34L382.24 418.45ZM377.36 411.56H380.91L379.13 413.34L377.36 411.56ZM378.12 422.56L375.02 425.67L371.92 422.56L375.02 419.47L378.12 422.56ZM367.81 426.67L370.92 423.57L374.02 426.67L370.92 429.78L367.81 426.67ZM369.91 430.78L366.8 433.88L363.71 430.78L366.81 427.68L369.91 430.78ZM375.02 427.68L378.12 430.78L375.02 433.88L371.92 430.78L375.02 427.68ZM370.92 421.56L367.81 418.46L370.92 415.35L374.02 418.46L370.92 421.56ZM369.92 422.56L366.82 425.67L363.72 422.56L366.82 419.47L369.92 422.56ZM362.71 421.56L359.61 418.46L362.71 415.35L365.81 418.46L362.71 421.56ZM362.71 423.56L365.81 426.66L362.71 429.77L359.61 426.66L362.71 423.56ZM365.81 434.88L362.71 437.98L359.61 434.88L362.71 431.78L365.81 434.88ZM366.81 435.88L369.92 438.99L366.82 442.09L363.72 438.99L366.81 435.88ZM367.81 434.88L370.92 431.78L374.02 434.88L370.92 437.98L367.81 434.88ZM375.02 435.88L378.12 438.99L375.02 442.09L371.92 438.99L375.02 435.88ZM379.1 440L382.21 443.11L380.21 445.11H378L376 443.11L379.1 440ZM376 434.89L379.1 431.79L382.21 434.89L379.1 438L376 434.89ZM376 426.67L379.1 423.57L382.21 426.67L379.1 429.78L376 426.67ZM378.09 414.35L374.99 417.45L371.89 414.35L374.67 411.57H375.32L378.09 414.35ZM370.89 413.35L369.11 411.57H372.66L370.89 413.35ZM369.89 414.35L366.79 417.45L363.69 414.35L366.46 411.57H367.12L369.89 414.35ZM364.45 411.57L362.68 413.35L360.91 411.57H364.45ZM358.9 411.57L361.67 414.35L358.57 417.45L355.87 414.75L355.81 414.01L358.24 411.57H358.9ZM356.24 411.57L355.66 412.15V411.57H356.24ZM356.05 416.94L357.57 418.46L356.27 419.75L356.05 416.94ZM356.89 427.35L356.77 425.88L357.57 426.68L356.89 427.36V427.35ZM357.04 429.21L358.57 427.68L361.67 430.78L358.57 433.88L357.32 432.63L357.04 429.21ZM357.5 434.96V434.82L357.57 434.89L357.5 434.96ZM358.04 441.57L357.65 436.81L358.57 435.89L361.67 439L358.57 442.1L358.04 441.57ZM358.33 445.12L358.27 444.41L358.57 444.11L359.57 445.11L358.33 445.12ZM359.58 443.12L362.68 440.01L365.78 443.12L363.78 445.12H361.59L359.58 443.12ZM365.78 445.12L366.78 444.12L367.78 445.12H365.78ZM369.78 445.12L367.78 443.12L370.89 440.01L373.99 443.12L371.99 445.12H369.78ZM373.98 445.12L374.98 444.12L375.98 445.12H373.98ZM383.44 445.12H382.2L383.2 444.12L383.5 444.42L383.44 445.12ZM383.73 441.57L383.2 442.1L380.1 439L383.21 435.89L384.13 436.81L383.73 441.57ZM384.28 434.81V434.96L384.22 434.89L384.3 434.81H384.28ZM384.46 432.63L383.2 433.88L380.09 430.78L383.2 427.68L384.73 429.21L384.46 432.63ZM384.88 427.35L384.2 426.67L385 425.88L384.88 427.35ZM385.73 416.93L385.5 419.76L384.2 418.46L385.73 416.93Z" fill="#658CC8"/>
<g opacity="0.6">
<path opacity="0.6" d="M384.3 410.15H354.06L354.31 413.21L354.49 415.39L354.95 421.06L355.21 424.33L355.56 428.67L355.71 430.53L355.76 431.08L355.94 433.27L356.18 436.27L356.33 438.13L356.48 440.02L356.66 442.21L356.8 443.87L356.95 445.73L357.01 446.54H384.76L384.83 445.73L384.98 443.87L385.11 442.2L385.29 440.01L385.45 438.13L385.6 436.27L385.84 433.27L386.02 431.09V430.54L386.17 428.68L386.52 424.34L386.79 421.08L387.24 415.4L387.42 413.22L387.67 410.16L384.3 410.15ZM386.12 412.15L385.54 411.57H386.17L386.12 412.15ZM386 414L385.95 414.74L383.24 417.44L380.13 414.34L382.91 411.56H383.57L386 414ZM385.22 423.68L383.22 425.68L380.11 422.57L383.22 419.48L385.36 421.62L385.22 423.68ZM356.44 421.6L358.59 419.46L361.69 422.55L358.59 425.66L356.59 423.66L356.44 421.6ZM382.24 418.45L379.13 421.55L376.03 418.45L379.13 415.34L382.24 418.45ZM377.36 411.56H380.91L379.13 413.34L377.36 411.56ZM378.12 422.56L375.02 425.67L371.92 422.56L375.02 419.47L378.12 422.56ZM367.81 426.67L370.92 423.57L374.02 426.67L370.92 429.78L367.81 426.67ZM369.91 430.78L366.8 433.88L363.71 430.78L366.81 427.68L369.91 430.78ZM375.02 427.68L378.12 430.78L375.02 433.88L371.92 430.78L375.02 427.68ZM370.92 421.56L367.81 418.46L370.92 415.35L374.02 418.46L370.92 421.56ZM369.92 422.56L366.82 425.67L363.72 422.56L366.82 419.47L369.92 422.56ZM362.71 421.56L359.61 418.46L362.71 415.35L365.81 418.46L362.71 421.56ZM362.71 423.56L365.81 426.66L362.71 429.77L359.61 426.66L362.71 423.56ZM365.81 434.88L362.71 437.98L359.61 434.88L362.71 431.78L365.81 434.88ZM366.81 435.88L369.92 438.99L366.82 442.09L363.72 438.99L366.81 435.88ZM367.81 434.88L370.92 431.78L374.02 434.88L370.92 437.98L367.81 434.88ZM375.02 435.88L378.12 438.99L375.02 442.09L371.92 438.99L375.02 435.88ZM379.1 440L382.21 443.11L380.21 445.11H378L376 443.11L379.1 440ZM376 434.89L379.1 431.79L382.21 434.89L379.1 438L376 434.89ZM376 426.67L379.1 423.57L382.21 426.67L379.1 429.78L376 426.67ZM378.09 414.35L374.99 417.45L371.89 414.35L374.67 411.57H375.32L378.09 414.35ZM370.89 413.35L369.11 411.57H372.66L370.89 413.35ZM369.89 414.35L366.79 417.45L363.69 414.35L366.46 411.57H367.12L369.89 414.35ZM364.45 411.57L362.68 413.35L360.91 411.57H364.45ZM358.9 411.57L361.67 414.35L358.57 417.45L355.87 414.75L355.81 414.01L358.24 411.57H358.9ZM356.24 411.57L355.66 412.15V411.57H356.24ZM356.05 416.94L357.57 418.46L356.27 419.75L356.05 416.94ZM356.89 427.35L356.77 425.88L357.57 426.68L356.89 427.36V427.35ZM357.04 429.21L358.57 427.68L361.67 430.78L358.57 433.88L357.32 432.63L357.04 429.21ZM357.5 434.96V434.82L357.57 434.89L357.5 434.96ZM358.04 441.57L357.65 436.81L358.57 435.89L361.67 439L358.57 442.1L358.04 441.57ZM358.33 445.12L358.27 444.41L358.57 444.11L359.57 445.11L358.33 445.12ZM359.58 443.12L362.68 440.01L365.78 443.12L363.78 445.12H361.59L359.58 443.12ZM365.78 445.12L366.78 444.12L367.78 445.12H365.78ZM369.78 445.12L367.78 443.12L370.89 440.01L373.99 443.12L371.99 445.12H369.78ZM373.98 445.12L374.98 444.12L375.98 445.12H373.98ZM383.44 445.12H382.2L383.2 444.12L383.5 444.42L383.44 445.12ZM383.73 441.57L383.2 442.1L380.1 439L383.21 435.89L384.13 436.81L383.73 441.57ZM384.28 434.81V434.96L384.22 434.89L384.3 434.81H384.28ZM384.46 432.63L383.2 433.88L380.09 430.78L383.2 427.68L384.73 429.21L384.46 432.63ZM384.88 427.35L384.2 426.67L385 425.88L384.88 427.35ZM385.73 416.93L385.5 419.76L384.2 418.46L385.73 416.93Z" fill="white"/>
</g>
<path d="M353.76 412.84H388C388.906 412.84 389.64 412.106 389.64 411.2V410.52C389.64 409.614 388.906 408.88 388 408.88H353.76C352.854 408.88 352.12 409.614 352.12 410.52V411.2C352.12 412.106 352.854 412.84 353.76 412.84Z" fill="#658CC8"/>
<path d="M385.3 444.41H356.47C355.564 444.41 354.83 445.144 354.83 446.05V446.73C354.83 447.636 355.564 448.37 356.47 448.37H385.3C386.206 448.37 386.94 447.636 386.94 446.73V446.05C386.94 445.144 386.206 444.41 385.3 444.41Z" fill="#658CC8"/>
<path d="M485.42 124.51H237.36C235.079 124.51 233.23 126.359 233.23 128.64V307.59C233.23 309.871 235.079 311.72 237.36 311.72H485.42C487.701 311.72 489.55 309.871 489.55 307.59V128.64C489.55 126.359 487.701 124.51 485.42 124.51Z" fill="#658CC8"/>
<path opacity="0.4" d="M489.55 134.63H233.23V303.61H489.55V134.63Z" fill="black"/>
<path d="M483.55 131.85C484.881 131.85 485.96 130.771 485.96 129.44C485.96 128.109 484.881 127.03 483.55 127.03C482.219 127.03 481.14 128.109 481.14 129.44C481.14 130.771 482.219 131.85 483.55 131.85Z" fill="white"/>
<path d="M475.42 131.85C476.751 131.85 477.83 130.771 477.83 129.44C477.83 128.109 476.751 127.03 475.42 127.03C474.089 127.03 473.01 128.109 473.01 129.44C473.01 130.771 474.089 131.85 475.42 131.85Z" fill="white"/>
<path d="M467.29 131.85C468.621 131.85 469.7 130.771 469.7 129.44C469.7 128.109 468.621 127.03 467.29 127.03C465.959 127.03 464.88 128.109 464.88 129.44C464.88 130.771 465.959 131.85 467.29 131.85Z" fill="white"/>
<path d="M317.47 222.45H234.18V295.43H317.47V222.45Z" fill="#263238"/>
<path d="M317.47 147.86H234.18V220.84H317.47V147.86Z" fill="#263238"/>
<path d="M402.67 147.86H319.38V220.84H402.67V147.86Z" fill="#658CC8"/>
<path d="M487.88 147.86H404.59V220.84H487.88V147.86Z" fill="white"/>
<path d="M402.67 222.45H319.38V295.43H402.67V222.45Z" fill="#263238"/>
<path d="M487.88 222.45H404.59V295.43H487.88V222.45Z" fill="#658CC8"/>
<path d="M473.61 220.84L475.5 204.92C475.752 202.864 475.232 200.788 474.04 199.094C472.848 197.399 471.07 196.208 469.05 195.75C447.43 190.94 434.53 195.7 434.53 195.7C429.692 203.531 425.953 211.99 423.42 220.84H473.61Z" fill="#263238"/>
<path d="M458 195.06C459.853 194.856 461.72 194.82 463.58 194.95C458.88 191.02 461.21 181.04 463.12 175.62L448.59 183.83C448.758 184.524 448.879 185.229 448.95 185.94C449.133 187.21 448.981 188.506 448.51 189.7C447.653 191.233 446.477 192.563 445.06 193.6L450.88 196.19L458 195.06Z" fill="#E4897B"/>
<path opacity="0.2" d="M459.79 180.84C459.21 187.5 452.05 189.33 448.54 189.7C449.011 188.506 449.163 187.21 448.98 185.94L459.79 180.84Z" fill="black"/>
<path d="M440.68 160.69C440.68 160.69 439.54 170.16 445.04 174.15C450.54 178.14 449.35 155 449.35 155L440.68 160.69Z" fill="#263238"/>
<path d="M462 180.7C461.712 181.286 461.377 181.847 461 182.38C459.928 183.969 458.395 185.191 456.606 185.881C454.818 186.571 452.862 186.697 451 186.24C450.736 186.182 450.475 186.108 450.22 186.02C447.767 185.253 445.686 183.603 444.38 181.39C444.38 181.32 444.29 181.23 444.24 181.16C444.06 180.84 443.9 180.51 443.74 180.16C443.432 179.424 443.162 178.673 442.93 177.91C440.93 171.48 441.17 160.73 447.14 157.04C451.89 154.04 459.4 155.04 462.39 159.81C463.25 161.16 462.29 164.69 462.44 166.28C463.15 172.74 463.87 176.85 462 180.7Z" fill="#E4897B"/>
<path d="M451.64 170.24C451.78 170.82 451.51 171.37 451.11 171.44C450.71 171.51 450.32 171.07 450.22 170.44C450.12 169.81 450.35 169.3 450.74 169.24C451.13 169.18 451.53 169.64 451.64 170.24Z" fill="#263238"/>
<path d="M444.88 171.39C445.02 171.98 444.74 172.53 444.35 172.59C443.96 172.65 443.57 172.22 443.46 171.59C443.35 170.96 443.6 170.45 443.98 170.39C444.36 170.33 444.78 170.83 444.88 171.39Z" fill="#263238"/>
<path d="M447.08 171.32C446.676 173.27 446.003 175.155 445.08 176.92C445.546 177.148 446.056 177.27 446.574 177.279C447.093 177.287 447.607 177.182 448.08 176.97L447.08 171.32Z" fill="#DE5753"/>
<path d="M453.36 167.69C453.297 167.71 453.229 167.713 453.164 167.699C453.099 167.685 453.039 167.654 452.99 167.61C452.671 167.299 452.286 167.067 451.862 166.929C451.439 166.792 450.99 166.755 450.55 166.82C450.459 166.841 450.362 166.826 450.282 166.777C450.202 166.729 450.144 166.651 450.12 166.56C450.108 166.515 450.106 166.469 450.112 166.423C450.119 166.377 450.135 166.333 450.16 166.294C450.184 166.255 450.216 166.221 450.254 166.194C450.292 166.168 450.335 166.149 450.38 166.14C450.939 166.044 451.513 166.084 452.053 166.259C452.593 166.433 453.083 166.735 453.48 167.14C453.545 167.207 453.581 167.297 453.581 167.39C453.581 167.483 453.545 167.573 453.48 167.64C453.443 167.663 453.402 167.68 453.36 167.69Z" fill="#263238"/>
<path d="M441.58 169.56C441.516 169.597 441.443 169.614 441.37 169.61C441.325 169.597 441.283 169.576 441.246 169.547C441.21 169.518 441.18 169.482 441.157 169.441C441.135 169.4 441.121 169.355 441.116 169.308C441.112 169.262 441.116 169.215 441.13 169.17C441.275 168.622 441.549 168.117 441.931 167.697C442.312 167.278 442.788 166.956 443.32 166.76C443.41 166.735 443.506 166.746 443.589 166.791C443.671 166.836 443.732 166.911 443.76 167C443.785 167.09 443.774 167.186 443.729 167.269C443.684 167.351 443.609 167.412 443.52 167.44C443.106 167.608 442.738 167.87 442.443 168.205C442.148 168.54 441.934 168.939 441.82 169.37C441.795 169.417 441.761 169.458 441.72 169.49C441.679 169.523 441.631 169.547 441.58 169.56Z" fill="#263238"/>
<path d="M465.24 161.73C465.24 161.53 465.32 161.33 465.35 161.11C466.35 154.02 455.96 149.85 446.58 150.73C442.49 151.12 443.43 158.11 443.43 158.11C443.43 158.11 441.11 158.11 440.06 159.52C438.21 162.02 441.06 167.52 441.06 167.52C439.63 159.52 443.77 159.08 443.77 159.08C443.77 159.08 444.77 162.18 446.62 161.9C448.47 161.62 453.15 157.09 455.45 157.63C456.176 157.784 456.849 158.127 457.4 158.623C457.951 159.12 458.362 159.754 458.59 160.46C458.623 161.17 458.505 161.878 458.243 162.539C457.981 163.199 457.581 163.796 457.07 164.29C455.07 166.5 458.43 171.22 460.74 172.66C460.74 172.66 460.66 171.47 461.69 171.66C462.72 171.85 463.21 178.04 461.61 181.23C461.61 181.23 464.24 178.23 465.12 171.51C465.618 168.272 465.658 164.98 465.24 161.73Z" fill="#263238"/>
<path d="M449.56 179.9C450.436 179.881 451.294 179.652 452.063 179.233C452.832 178.813 453.49 178.216 453.98 177.49C453.994 177.469 454.004 177.446 454.009 177.421C454.014 177.397 454.013 177.371 454.008 177.347C454.002 177.322 453.991 177.299 453.976 177.279C453.961 177.259 453.942 177.242 453.92 177.23C453.9 177.217 453.878 177.208 453.855 177.203C453.832 177.198 453.808 177.198 453.785 177.203C453.761 177.208 453.739 177.217 453.72 177.23C453.7 177.243 453.683 177.26 453.67 177.28C453.202 177.944 452.587 178.49 451.872 178.875C451.157 179.261 450.362 179.475 449.55 179.5C449.501 179.5 449.454 179.519 449.419 179.552C449.384 179.586 449.363 179.631 449.36 179.68C449.36 179.729 449.379 179.776 449.412 179.811C449.446 179.846 449.491 179.867 449.54 179.87L449.56 179.9Z" fill="#263238"/>
<path d="M466.66 171.76C466.128 173.558 464.905 175.071 463.26 175.97C461.07 177.15 459.44 175.32 459.58 172.97C459.74 170.88 461.03 167.68 463.46 167.5C465.89 167.32 467.28 169.54 466.66 171.76Z" fill="#E4897B"/>
<path opacity="0.1" d="M451 186.24C450.736 186.182 450.475 186.108 450.22 186.02C447.767 185.253 445.686 183.603 444.38 181.39C446.12 181.2 449.75 180.84 450.49 181.16C451.23 181.48 451.1 184.76 451 186.24Z" fill="black"/>
<path d="M440.02 220.84H444.89L450.19 201.3L455.01 196.19H446.57L448.54 201.11L440.02 220.84Z" fill="#658CC8"/>
<path d="M422.09 217.19L421.78 220.84H429.69C436.46 204.77 442.75 193.12 442.75 193.12L434.53 195.7C415.53 201.26 413.93 213.7 417.17 216.88C420.41 220.06 422.09 217.19 422.09 217.19Z" fill="#658CC8"/>
<path opacity="0.5" d="M422.09 217.19L421.78 220.84H429.69C436.46 204.77 442.75 193.12 442.75 193.12L434.53 195.7C415.53 201.26 413.93 213.7 417.17 216.88C420.41 220.06 422.09 217.19 422.09 217.19Z" fill="white"/>
<path d="M428 220.84H429.84C436 207.57 446.23 192 446.23 192C442.036 191.99 437.881 192.802 434 194.39L436.11 200.27L431.02 201.27L428 220.84Z" fill="#658CC8"/>
<path opacity="0.4" d="M428 220.84H429.84C436 207.57 446.23 192 446.23 192C442.036 191.99 437.881 192.802 434 194.39L436.11 200.27L431.02 201.27L428 220.84Z" fill="white"/>
<path opacity="0.2" d="M425.86 220.84C426.907 218.589 427.466 216.142 427.5 213.66L422.09 217.19L421.78 220.84H425.86Z" fill="black"/>
<path d="M443.55 193.94L447.44 190.42L450.91 195.15L461.91 190.42L464.67 194.88L454.01 200.17L450.47 196.76L446.57 199.22L443.55 193.94Z" fill="#263238"/>
<path opacity="0.2" d="M443.55 193.94L447.44 190.42L450.91 195.15L461.91 190.42L464.67 194.88L454.01 200.17L450.47 196.76L446.57 199.22L443.55 193.94Z" fill="white"/>
<path d="M431 205.69L442.74 193.12C444.257 193.093 445.714 192.526 446.85 191.52C448.59 189.88 450.96 182.62 450.38 182.15C449.8 181.68 442.8 181.1 442.14 181.92C441.48 182.74 438.58 190.08 438.58 190.08L426 199.92L431 205.69Z" fill="#E4897B"/>
<path d="M432.3 194.7L434.62 192.65L440.18 196.96L437.66 200.31L432.3 194.7Z" fill="#263238"/>
<path opacity="0.2" d="M432.3 194.7L434.62 192.65L440.18 196.96L437.66 200.31L432.3 194.7Z" fill="white"/>
<path d="M432.93 193.39L439.59 198.66C439.59 198.66 424.11 223.18 418.48 218C412.85 212.82 415.73 204.71 432.93 193.39Z" fill="#658CC8"/>
<path opacity="0.6" d="M432.93 193.39L439.59 198.66C439.59 198.66 424.11 223.18 418.48 218C412.85 212.82 415.73 204.71 432.93 193.39Z" fill="white"/>
<path d="M475.63 220.84L476.63 203.26C476.707 201.555 476.244 199.87 475.307 198.444C474.369 197.018 473.006 195.925 471.41 195.32L462.64 192C462.64 192 463.01 205.2 464.03 220.81L475.63 220.84Z" fill="#658CC8"/>
<path opacity="0.5" d="M475.63 220.84L476.63 203.26C476.707 201.555 476.244 199.87 475.307 198.444C474.369 197.018 473.006 195.925 471.41 195.32L462.64 192C462.64 192 463.01 205.2 464.03 220.81L475.63 220.84Z" fill="white"/>
<path d="M467.62 220.84L470.85 211.77L466 207.35L471.55 205.69C468.02 194.81 462.3 191.11 462.3 191.11C460.88 198.11 462.3 211.92 463.43 220.84H467.62Z" fill="#658CC8"/>
<path opacity="0.4" d="M467.62 220.84L470.85 211.77L466 207.35L471.55 205.69C468.02 194.81 462.3 191.11 462.3 191.11C460.88 198.11 462.3 211.92 463.43 220.84H467.62Z" fill="white"/>
<path d="M423.48 218.7C424.48 219.08 432.33 219.6 432.33 219.6L434.16 220.84H446.94L433.94 214.71C433.45 213.276 432.469 212.06 431.17 211.28C429.07 210.12 421.43 210.09 421.17 210.78C420.91 211.47 422.49 218.31 423.48 218.7Z" fill="#E4897B"/>
<path d="M442.92 220.84L444.1 218.72L439.24 216.59L437.51 220.84H442.92Z" fill="#263238"/>
<path opacity="0.2" d="M442.92 220.84L444.1 218.72L439.24 216.59L437.51 220.84H442.92Z" fill="white"/>
<path d="M469.35 220.84C475.15 211.77 479.23 200.73 474.49 197.52C474.49 197.52 470.85 196.52 455.82 219.45C455.82 219.45 454.17 222.99 441.82 217.45L440.21 220.85L469.35 220.84Z" fill="#658CC8"/>
<path opacity="0.6" d="M469.35 220.84C475.15 211.77 479.23 200.73 474.49 197.52C474.49 197.52 470.85 196.52 455.82 219.45C455.82 219.45 454.17 222.99 441.82 217.45L440.21 220.85L469.35 220.84Z" fill="white"/>
<path opacity="0.3" d="M402.67 222.45H319.38V295.43H402.67V222.45Z" fill="white"/>
<path d="M248.51 220.84C250.51 215.63 262.26 205.48 262.26 205.48V195C256.26 196.12 241.57 208.76 241.19 220.81L248.51 220.84Z" fill="#658CC8"/>
<path opacity="0.6" d="M248.51 220.84C249.51 218.36 252.62 214.77 255.65 211.68C259.02 208.28 262.26 205.49 262.26 205.49V195C256.26 196.12 241.56 208.76 241.19 220.81L248.51 220.84Z" fill="white"/>
<path opacity="0.2" d="M255.65 211.68C259.02 208.28 262.26 205.49 262.26 205.49V202.44C262.26 202.44 256.48 205.31 255.65 211.68Z" fill="black"/>
<path d="M304.58 220.84C306.08 211.62 307.58 204.02 308.23 200.58C308.337 200.051 308.233 199.502 307.939 199.049C307.646 198.597 307.186 198.278 306.66 198.16C304.51 197.69 302.29 197.29 300.06 196.95C289.973 195.536 279.795 194.867 269.61 194.95C265.09 194.95 262.26 195.08 262.26 195.08C260.2 202.46 258.97 211.65 258.26 220.89L304.58 220.84Z" fill="#658CC8"/>
<path opacity="0.7" d="M304.59 220.84L304.71 220.07C306.16 211.2 307.56 203.92 308.22 200.58C308.25 200.398 308.25 200.212 308.22 200.03C308.2 199.586 308.034 199.161 307.746 198.822C307.458 198.484 307.065 198.251 306.63 198.16C304.47 197.69 302.26 197.29 300.03 196.95C289.943 195.536 279.765 194.867 269.58 194.95C265.06 194.95 262.23 195.08 262.23 195.08C260.17 202.46 258.94 211.65 258.23 220.89L304.59 220.84Z" fill="white"/>
<path d="M278.52 206.78C291.52 208.16 300.23 197.08 300.23 197.08L300.06 196.95C289.973 195.536 279.795 194.867 269.61 194.95C269.61 194.95 266.29 205.48 278.52 206.78Z" fill="#658CC8"/>
<path d="M292.92 195.93C289.26 199.26 280.29 198.03 280.29 198.03C280.29 198.03 274.69 196.5 275.86 194.75C279.16 194.2 280.76 192.66 281.42 190.69C281.78 189.471 281.892 188.193 281.75 186.93C281.699 186.222 281.609 185.518 281.48 184.82L292.57 176.61C291.12 182 289.34 192 292.92 195.93Z" fill="#E4897B"/>
<path opacity="0.2" d="M290 181.83C289.56 188.48 284.09 190.32 281.41 190.69C281.77 189.471 281.882 188.193 281.74 186.93L290 181.83Z" fill="black"/>
<path d="M291.29 191.71L280.69 196.49L280.06 192.66L276.17 194C275.489 194.239 274.908 194.701 274.522 195.31C274.135 195.92 273.966 196.642 274.04 197.36L274.48 201.56L279.86 198.62L282.54 202.41L295.28 196.28L291.29 191.71Z" fill="#658CC8"/>
<path opacity="0.3" d="M291.29 191.71L280.69 196.49L280.06 192.66L276.17 194C275.489 194.239 274.908 194.701 274.522 195.31C274.135 195.92 273.966 196.642 274.04 197.36L274.48 201.56L279.86 198.62L282.54 202.41L295.28 196.28L291.29 191.71Z" fill="white"/>
<path d="M273.08 159.91C273.08 159.91 270.08 170.29 275.15 175.11C280.22 179.93 282.84 160.21 282.84 160.21L273.08 159.91Z" fill="#263238"/>
<path opacity="0.2" d="M273.08 159.91C273.08 159.91 270.08 170.29 275.15 175.11C280.22 179.93 282.84 160.21 282.84 160.21L273.08 159.91Z" fill="white"/>
<path d="M273 181.08C273.11 181.45 273.23 181.82 273.37 182.17C274.393 184.721 276.344 186.79 278.83 187.96C281.06 189.031 283.61 189.231 285.98 188.52C287.668 187.989 289.182 187.011 290.36 185.69C294.1 181.63 293.83 177.1 293.99 169.42C294.06 167.626 293.669 165.843 292.854 164.243C292.039 162.643 290.827 161.279 289.335 160.281C287.842 159.283 286.118 158.684 284.328 158.542C282.538 158.4 280.741 158.72 279.11 159.47C271.71 162.8 271.09 174.24 273 181.08Z" fill="#E4897B"/>
<path d="M282.43 172C282.49 172.61 282.14 173.14 281.73 173.15C281.32 173.16 280.97 172.67 280.94 172.05C280.91 171.43 281.24 170.9 281.64 170.89C282.04 170.88 282.4 171.37 282.43 172Z" fill="#263238"/>
<path d="M275.36 172.27C275.43 172.89 275.07 173.42 274.66 173.43C274.25 173.44 273.91 172.95 273.88 172.32C273.85 171.69 274.17 171.18 274.58 171.17C274.99 171.16 275.34 171.68 275.36 172.27Z" fill="#263238"/>
<path d="M277.62 172.5C276.947 174.44 276.008 176.278 274.83 177.96C275.269 178.245 275.764 178.431 276.282 178.507C276.8 178.583 277.328 178.547 277.83 178.4L277.62 172.5Z" fill="#DE5753"/>
<path d="M272.63 169.35C272.687 169.387 272.753 169.406 272.82 169.406C272.887 169.406 272.953 169.387 273.01 169.35C273.386 169.085 273.818 168.911 274.272 168.84C274.727 168.769 275.191 168.803 275.63 168.94C275.674 168.96 275.721 168.971 275.769 168.972C275.818 168.973 275.865 168.964 275.91 168.946C275.955 168.929 275.996 168.902 276.03 168.868C276.064 168.835 276.092 168.794 276.11 168.75C276.147 168.661 276.148 168.561 276.113 168.471C276.077 168.382 276.008 168.31 275.92 168.27C275.371 168.08 274.784 168.023 274.208 168.105C273.633 168.187 273.085 168.404 272.61 168.74C272.528 168.793 272.47 168.877 272.45 168.972C272.429 169.068 272.447 169.168 272.5 169.25C272.535 169.293 272.58 169.327 272.63 169.35Z" fill="#263238"/>
<path d="M283.72 169.13C283.793 169.123 283.862 169.095 283.92 169.05C283.986 168.98 284.023 168.887 284.023 168.79C284.023 168.693 283.986 168.6 283.92 168.53C283.47 168.157 282.938 167.898 282.367 167.774C281.796 167.651 281.204 167.667 280.64 167.82C280.549 167.852 280.475 167.918 280.432 168.004C280.389 168.089 280.381 168.188 280.41 168.28C280.444 168.371 280.512 168.446 280.599 168.489C280.687 168.532 280.787 168.539 280.88 168.51C281.328 168.407 281.794 168.409 282.241 168.515C282.688 168.62 283.105 168.827 283.46 169.12C283.543 169.152 283.635 169.156 283.72 169.13Z" fill="#263238"/>
<path d="M288 160.06L287.55 163.44C288.122 163.716 288.568 164.199 288.798 164.791C289.028 165.383 289.025 166.04 288.79 166.63C287.67 169.47 289.24 173.9 291.41 175.68C291.41 175.68 291.49 174.45 292.53 174.75C293.57 175.05 293.21 181.48 291.15 184.52C291.15 184.52 294.25 181.78 296.05 175.05C297.72 168.83 297.97 163.63 296.71 161.21L288 160.06Z" fill="#263238"/>
<path d="M279 182.43C278.954 182.445 278.906 182.445 278.86 182.43C278.806 182.392 278.768 182.334 278.755 182.269C278.742 182.204 278.755 182.136 278.79 182.08C279.602 180.873 280.824 180.003 282.23 179.63C282.263 179.623 282.297 179.622 282.33 179.628C282.363 179.635 282.395 179.647 282.423 179.666C282.451 179.685 282.475 179.709 282.493 179.737C282.511 179.765 282.524 179.797 282.53 179.83C282.542 179.894 282.529 179.959 282.493 180.013C282.458 180.067 282.403 180.106 282.34 180.12C281.064 180.472 279.955 181.266 279.21 182.36C279.182 182.386 279.149 182.406 279.113 182.418C279.076 182.431 279.038 182.435 279 182.43Z" fill="#263238"/>
<path opacity="0.1" d="M275.53 185.56C276.465 186.565 277.585 187.38 278.83 187.96C281.06 189.031 283.61 189.231 285.98 188.52C284.926 187.574 283.644 186.919 282.26 186.62C280.059 186.035 277.804 185.679 275.53 185.56Z" fill="black"/>
<path opacity="0.2" d="M288 160.06L287.55 163.44C288.122 163.716 288.568 164.199 288.798 164.791C289.028 165.383 289.025 166.04 288.79 166.63C287.67 169.47 289.24 173.9 291.41 175.68C291.41 175.68 291.49 174.45 292.53 174.75C293.57 175.05 293.21 181.48 291.15 184.52C291.15 184.52 294.25 181.78 296.05 175.05C297.72 168.83 297.97 163.63 296.71 161.21L288 160.06Z" fill="white"/>
<path d="M297.24 162.76C297.24 162.76 298.07 158.32 291.08 154.85C284.09 151.38 276.43 155.34 271.76 152.35C267.09 149.36 266.92 161.65 276.9 163.03C283.663 163.814 290.5 163.723 297.24 162.76Z" fill="#263238"/>
<path opacity="0.3" d="M297.24 162.76C297.24 162.76 298.07 158.32 291.08 154.85C284.09 151.38 276.43 155.34 271.76 152.35C267.09 149.36 266.92 161.65 276.9 163.03C283.663 163.814 290.5 163.723 297.24 162.76Z" fill="white"/>
<path d="M297.58 175.59C296.806 177.35 295.368 178.734 293.58 179.44C291.18 180.34 289.76 178.25 290.22 175.87C290.66 173.75 292.42 170.66 294.93 170.8C297.44 170.94 298.52 173.4 297.58 175.59Z" fill="#E4897B"/>
<path d="M285.71 200.34L284.65 194.7C284.65 194.7 286.85 192.62 286.59 190.7C286.33 188.78 276.59 185.6 274.83 185.47C273.07 185.34 273.76 192.38 274.29 193.67C274.82 194.96 280.69 196.5 280.69 196.5L281.42 202.45L285.71 200.34Z" fill="#E4897B"/>
<path opacity="0.2" d="M303.27 220.84C303.78 220.59 304.27 220.33 304.71 220.07C306.16 211.2 307.56 203.92 308.22 200.58C308.25 200.398 308.25 200.212 308.22 200.03C301.9 206.47 292.06 217.24 293.22 220.84H303.27Z" fill="black"/>
<path d="M299.84 220.84C307.11 214.32 313.43 205.33 308.96 199.26C305.04 193.92 294.96 213.26 291.89 214.59C288.82 215.92 286.16 198.18 286.16 198.18L280.16 199.96C280.16 199.96 281.26 212.74 284.34 220.84H299.84Z" fill="#658CC8"/>
<path opacity="0.6" d="M299.84 220.84C307.11 214.32 313.43 205.33 308.96 199.26C305.04 193.92 294.96 213.26 291.89 214.59C288.82 215.92 286.16 198.18 286.16 198.18L280.16 199.96C280.16 199.96 281.26 212.74 284.34 220.84H299.84Z" fill="white"/>
<path d="M345.16 220.84C347.27 218.71 348.64 217.21 348.64 217.21L347.48 199.48C344.14 201.26 334.13 214.62 328.87 220.84H345.16Z" fill="#658CC8"/>
<path opacity="0.5" d="M345.16 220.84C347.27 218.71 348.64 217.21 348.64 217.21L347.48 199.48C344.14 201.26 334.13 214.62 328.87 220.84H345.16Z" fill="white"/>
<path opacity="0.2" d="M345.15 220.84C347.27 218.71 348.64 217.21 348.64 217.21L348.37 213L347 208.92C343.92 212.116 342.23 216.402 342.3 220.84H345.15Z" fill="black"/>
<path d="M380.21 220.84C380.7 219.08 381.21 217.21 381.89 215.17C382.57 213.13 383.18 211.08 383.94 208.79C384.507 207.063 385.13 205.23 385.81 203.29C381.751 201.993 377.603 200.99 373.4 200.29C368.973 199.501 364.495 199.03 360 198.88C354.19 198.88 347.5 199.48 347.5 199.48C347.5 199.48 346.5 199.71 345.95 205.88C345.66 208.99 345.37 213.79 345.35 220.88L380.21 220.84Z" fill="#658CC8"/>
<path opacity="0.5" d="M380.21 220.84C380.7 219.08 381.21 217.21 381.89 215.17C382.57 213.13 383.18 211.08 383.94 208.79C384.507 207.063 385.13 205.23 385.81 203.29C381.751 201.993 377.603 200.99 373.4 200.29C368.973 199.501 364.495 199.03 360 198.88C354.19 198.88 347.5 199.48 347.5 199.48C347.5 199.48 346.5 199.71 345.95 205.88C345.66 208.99 345.37 213.79 345.35 220.88L380.21 220.84Z" fill="white"/>
<path d="M361.63 220.84L369.83 206.16L360.35 211.47L354.85 204.57L356.86 220.84H361.63Z" fill="#263238"/>
<path d="M370.15 198.43C375.57 199.71 377.21 204.05 376.61 208L372.66 206.68C368.108 208.328 363.837 210.668 360 213.62C360 213.62 357 208.12 354.14 206.32L350.08 206.8C350.08 206.8 356.41 195.21 370.15 198.43Z" fill="#263238"/>
<path opacity="0.1" d="M370.15 198.43C375.57 199.71 377.21 204.05 376.61 208L372.66 206.68C368.108 208.328 363.837 210.668 360 213.62C360 213.62 357 208.12 354.14 206.32L350.08 206.8C350.08 206.8 356.41 195.21 370.15 198.43Z" fill="white"/>
<path d="M360.32 200.16C360.612 200.005 360.916 199.874 361.23 199.77C361.92 199.23 362.76 197.91 362.72 194.77C362.688 193.517 362.571 192.267 362.37 191.03L371.24 189.38C371.24 189.38 368.24 195.38 370.74 199.77C371.6 200.16 372.12 200.71 372.03 201.43C371.36 206.55 360.35 211.51 360.35 211.51C360.35 211.51 355 203.1 360.32 200.16Z" fill="#ECDEF8"/>
<path opacity="0.2" d="M362.37 191C362.571 192.237 362.688 193.487 362.72 194.74C368.72 194.74 371.24 189.35 371.24 189.35L362.37 191Z" fill="black"/>
<path d="M366.33 161.74C366.33 161.74 355.93 160.42 354.01 168.74C353.461 171.115 353.598 173.598 354.403 175.899C355.208 178.2 356.65 180.225 358.56 181.74L366.33 161.74Z" fill="#263238"/>
<path d="M367.27 166.2C359.56 165.78 356.86 169.77 355.86 177.68C354.61 187.57 356.42 194.74 366.18 193.15C379.42 191 380.07 166.9 367.27 166.2Z" fill="#D8CFDF"/>
<path d="M360.86 177.52C360.183 178.636 359.373 179.667 358.45 180.59C358.657 180.927 358.954 181.198 359.307 181.375C359.661 181.552 360.057 181.626 360.45 181.59L360.86 177.52Z" fill="#D4827D"/>
<path d="M365.62 177.15C365.57 177.78 365.87 178.32 366.29 178.35C366.71 178.38 367.09 177.9 367.14 177.27C367.19 176.64 366.89 176.1 366.47 176.06C366.05 176.02 365.67 176.52 365.62 177.15Z" fill="#263238"/>
<path d="M366.64 176.11L365.31 175.46C365.31 175.46 365.9 176.67 366.64 176.11Z" fill="#263238"/>
<path d="M357.76 176.4C357.76 177.03 358.02 177.57 358.44 177.61C358.86 177.65 359.24 177.15 359.29 176.52C359.34 175.89 359.04 175.35 358.62 175.32C358.2 175.29 357.81 175.77 357.76 176.4Z" fill="#263238"/>
<path d="M358.79 175.36L357.46 174.71C357.46 174.71 358.05 175.93 358.79 175.36Z" fill="#263238"/>
<path d="M369.26 173.52C369.207 173.52 369.155 173.507 369.108 173.483C369.061 173.459 369.02 173.423 368.99 173.38C368.614 172.965 368.148 172.64 367.629 172.431C367.109 172.221 366.549 172.132 365.99 172.17C365.901 172.173 365.814 172.143 365.745 172.086C365.677 172.029 365.632 171.948 365.62 171.86C365.614 171.769 365.645 171.679 365.705 171.61C365.764 171.541 365.849 171.498 365.94 171.49C366.612 171.442 367.285 171.552 367.907 171.811C368.528 172.069 369.081 172.47 369.52 172.98C369.573 173.054 369.595 173.145 369.582 173.234C369.569 173.324 369.521 173.405 369.45 173.46C369.392 173.495 369.327 173.516 369.26 173.52Z" fill="#263238"/>
<path d="M357.29 172C357.231 171.999 357.173 171.983 357.123 171.953C357.072 171.924 357.029 171.881 357 171.83C356.977 171.791 356.961 171.748 356.955 171.704C356.948 171.659 356.95 171.614 356.961 171.57C356.973 171.526 356.992 171.485 357.02 171.449C357.047 171.413 357.081 171.383 357.12 171.36C357.617 171.028 358.183 170.812 358.774 170.727C359.366 170.642 359.97 170.691 360.54 170.87C360.581 170.888 360.617 170.915 360.648 170.947C360.679 170.98 360.702 171.018 360.718 171.06C360.734 171.102 360.741 171.146 360.74 171.191C360.739 171.235 360.728 171.279 360.71 171.32C360.695 171.362 360.671 171.401 360.64 171.433C360.609 171.465 360.572 171.491 360.53 171.508C360.489 171.525 360.444 171.533 360.399 171.532C360.354 171.53 360.31 171.519 360.27 171.5C359.799 171.362 359.304 171.331 358.819 171.409C358.335 171.487 357.874 171.672 357.47 171.95C357.415 171.98 357.353 171.997 357.29 172Z" fill="#263238"/>
<path d="M375 179.65C375 179.65 371.75 173.12 372.56 168.26C372.56 168.26 357.63 161.18 356.02 176.65C356.02 176.65 355.29 162.8 368.55 163.22C381.81 163.64 380.7 183.02 373.55 188.42C373.52 188.42 377 183.73 375 179.65Z" fill="#263238"/>
<path d="M365 161.14C365 161.14 358.67 159.58 356.87 161.26C355.07 162.94 367.87 174.77 374.57 175.96C374.57 175.96 376.84 183.37 375.04 186.84C375.04 186.84 382.58 184.21 382.93 172.73C383.28 161.25 371.23 157 365 161.14Z" fill="#263238"/>
<path d="M373.64 181.21C373.7 180.77 373.847 180.346 374.071 179.963C374.295 179.579 374.592 179.244 374.946 178.975C375.3 178.707 375.703 178.511 376.133 178.399C376.562 178.286 377.01 178.259 377.45 178.32C379.82 178.71 380.69 183.68 374.68 184.53C373.82 184.65 373.39 183.79 373.64 181.21Z" fill="#654182"/>
<path d="M377 165.68C377 165.68 379.63 158.99 386.68 159.46C393.73 159.93 394.81 170.94 391.1 179.07C387.39 187.2 389.91 189.83 389.91 189.83C389.91 189.83 385.96 189.35 385.96 182.06C385.744 183.603 385.664 185.163 385.72 186.72C385.72 186.72 383.09 183.01 385.6 175.96C388.11 168.91 380.1 172.14 380.1 172.14L377 165.68Z" fill="#263238"/>
<path d="M369.79 176.18C369.754 176.189 369.716 176.189 369.68 176.18C360.68 172.94 357.19 162.09 357.15 161.98C357.125 161.893 357.135 161.799 357.178 161.718C357.221 161.638 357.293 161.578 357.38 161.55C357.423 161.536 357.468 161.531 357.512 161.534C357.557 161.538 357.601 161.55 357.641 161.57C357.681 161.591 357.716 161.619 357.745 161.653C357.774 161.688 357.796 161.727 357.81 161.77C357.81 161.88 361.21 172.41 369.91 175.54C369.995 175.572 370.065 175.635 370.104 175.717C370.143 175.8 370.149 175.894 370.12 175.98C370.092 176.043 370.045 176.096 369.986 176.131C369.927 176.167 369.859 176.184 369.79 176.18Z" fill="#263238"/>
<path d="M362.26 186.47H362C361.955 186.47 361.91 186.461 361.869 186.443C361.827 186.425 361.79 186.399 361.759 186.366C361.728 186.334 361.704 186.295 361.689 186.252C361.674 186.21 361.667 186.165 361.67 186.12C361.675 186.029 361.716 185.943 361.783 185.882C361.85 185.82 361.939 185.787 362.03 185.79C363.583 185.786 365.074 185.181 366.19 184.1C366.254 184.037 366.34 184.001 366.43 184.001C366.52 184.001 366.606 184.037 366.67 184.1C366.733 184.164 366.769 184.25 366.769 184.34C366.769 184.43 366.733 184.516 366.67 184.58C365.491 185.743 363.916 186.418 362.26 186.47Z" fill="#263238"/>
<path d="M363.37 180.33C362.947 180.362 362.524 180.266 362.156 180.054C361.789 179.842 361.494 179.524 361.309 179.142C361.125 178.76 361.06 178.331 361.124 177.912C361.187 177.492 361.375 177.101 361.664 176.79C361.953 176.479 362.328 176.263 362.742 176.169C363.156 176.075 363.588 176.107 363.983 176.263C364.378 176.418 364.717 176.689 364.955 177.04C365.194 177.391 365.321 177.806 365.32 178.23C365.333 178.497 365.293 178.764 365.202 179.015C365.111 179.266 364.97 179.496 364.788 179.691C364.606 179.887 364.387 180.045 364.144 180.154C363.9 180.264 363.637 180.324 363.37 180.33ZM363.37 176.63C363.046 176.598 362.72 176.664 362.435 176.821C362.15 176.977 361.919 177.217 361.772 177.507C361.626 177.798 361.571 178.126 361.615 178.448C361.658 178.771 361.799 179.072 362.017 179.313C362.235 179.554 362.522 179.723 362.838 179.799C363.155 179.874 363.487 179.851 363.79 179.734C364.094 179.617 364.355 179.41 364.538 179.142C364.722 178.873 364.82 178.555 364.82 178.23C364.839 177.826 364.697 177.43 364.425 177.131C364.154 176.831 363.774 176.651 363.37 176.63Z" fill="#263238"/>
<path d="M357.33 180C356.909 180.022 356.49 179.917 356.129 179.699C355.768 179.481 355.481 179.16 355.304 178.777C355.127 178.394 355.069 177.966 355.138 177.55C355.207 177.134 355.398 176.748 355.689 176.441C355.979 176.135 356.354 175.923 356.766 175.832C357.178 175.742 357.608 175.776 358 175.932C358.392 176.088 358.728 176.358 358.965 176.707C359.202 177.056 359.329 177.468 359.33 177.89C359.345 178.162 359.304 178.434 359.211 178.689C359.117 178.945 358.972 179.178 358.785 179.376C358.597 179.573 358.372 179.731 358.122 179.838C357.872 179.945 357.602 180 357.33 180ZM357.33 176.29C357.006 176.26 356.681 176.328 356.397 176.486C356.113 176.644 355.884 176.884 355.739 177.175C355.594 177.466 355.541 177.794 355.585 178.116C355.63 178.438 355.772 178.738 355.991 178.978C356.21 179.218 356.496 179.386 356.813 179.461C357.129 179.535 357.46 179.511 357.763 179.394C358.066 179.276 358.326 179.069 358.51 178.801C358.693 178.533 358.791 178.215 358.79 177.89C358.798 177.491 358.65 177.104 358.377 176.813C358.105 176.522 357.729 176.348 357.33 176.33V176.29Z" fill="#263238"/>
<path d="M361.67 178.48C361.622 178.482 361.574 178.47 361.533 178.445C361.492 178.42 361.46 178.384 361.44 178.34C361.351 178.153 361.224 177.986 361.068 177.85C360.911 177.714 360.728 177.612 360.53 177.55C360.281 177.535 360.032 177.579 359.802 177.678C359.573 177.777 359.37 177.929 359.21 178.12C359.162 178.166 359.097 178.192 359.03 178.192C358.963 178.192 358.898 178.166 358.85 178.12C358.804 178.073 358.779 178.01 358.779 177.945C358.779 177.88 358.804 177.817 358.85 177.77C359.067 177.524 359.341 177.332 359.647 177.212C359.953 177.092 360.283 177.047 360.61 177.08C360.886 177.157 361.142 177.292 361.361 177.477C361.58 177.662 361.757 177.891 361.88 178.15C361.895 178.179 361.904 178.211 361.906 178.244C361.908 178.277 361.903 178.31 361.892 178.341C361.88 178.372 361.863 178.4 361.84 178.424C361.818 178.448 361.79 178.467 361.76 178.48H361.67Z" fill="#263238"/>
<path d="M365.07 178.48C365.005 178.48 364.943 178.455 364.897 178.41C364.85 178.366 364.823 178.305 364.82 178.24C364.82 178.174 364.844 178.111 364.889 178.063C364.933 178.015 364.995 177.985 365.06 177.98C365.46 177.98 374.65 177.69 375.78 177.74C375.847 177.745 375.91 177.776 375.955 177.826C375.999 177.877 376.023 177.943 376.02 178.01C376.015 178.075 375.985 178.135 375.936 178.177C375.888 178.22 375.825 178.243 375.76 178.24C374.64 178.19 365.18 178.48 365.08 178.48H365.07Z" fill="#263238"/>
<path d="M393.18 220.84C389.54 211.28 385.81 203.29 385.81 203.29C385.81 203.29 379.72 212.15 379.17 220.84H393.18Z" fill="#658CC8"/>
<path opacity="0.5" d="M393.18 220.84C389.54 211.28 385.81 203.29 385.81 203.29C385.81 203.29 379.72 212.15 379.17 220.84H393.18Z" fill="white"/>
<path d="M395.46 295.44C393.46 289.96 391.46 285.32 391.46 285.32L383.1 292.64L384.56 295.44H395.46Z" fill="#E4897B"/>
<path d="M336.43 295.44C338.43 293.02 339.84 291.24 339.84 291.24L331.67 284.46C331.67 284.46 327.67 290.63 324.41 295.46L336.43 295.44Z" fill="#E4897B"/>
<path d="M338.43 295.44L343.28 292.04L341.4 269.46C335.22 270.46 326.24 288.46 326.24 288.46L333.24 295.46L338.43 295.44Z" fill="#658CC8"/>
<path opacity="0.2" d="M333.25 295.44H338.43L341.91 293L343.28 292L341.4 269.41C335.22 270.47 326.24 288.41 326.24 288.41L332.42 294.54L333.25 295.44Z" fill="white"/>
<path d="M334.77 295.44L326.24 286.49L324.77 288.95L331.6 295.44H334.77Z" fill="#658CC8"/>
<path opacity="0.2" d="M338.43 295.44L341.91 293L340.26 283.21C340.26 283.21 333.8 287.29 332.42 294.61L333.25 295.44H338.43Z" fill="black"/>
<path d="M383.64 295.44C385.7 282.72 387.71 273.04 387.71 273.04C367.92 268.26 341.35 269.46 341.35 269.46C339.27 276.88 338.04 286.13 337.35 295.46L383.64 295.44Z" fill="#658CC8"/>
<path opacity="0.2" d="M383.64 295.44C383.78 294.55 383.92 293.67 384.06 292.81C385.97 281.41 387.71 273.04 387.71 273.04C367.92 268.26 341.35 269.46 341.35 269.46C339.27 276.88 338.05 286.13 337.35 295.46L383.64 295.44Z" fill="white"/>
<path opacity="0.2" d="M383.64 295.44C383.78 294.55 383.92 293.67 384.06 292.81L381.14 290.07C380.433 291.785 379.981 293.594 379.8 295.44H383.64Z" fill="black"/>
<path d="M352.62 295.44H355.76C356.103 289.716 356.915 284.031 358.19 278.44L363.74 273.9L359.37 272.49L355.37 272.71L356.44 277.96C356.44 277.96 354.54 286 352.62 295.44Z" fill="#263238"/>
<path d="M372 270.36C368.34 273.69 359.36 272.46 359.36 272.46C359.36 272.46 353.76 270.92 354.94 269.17C358.24 268.63 359.84 267.09 360.49 265.17C360.853 263.949 360.969 262.667 360.83 261.4C360.777 260.695 360.683 259.994 360.55 259.3L371.65 251.08C370.2 256.45 368.42 266.43 372 270.36Z" fill="#E4897B"/>
<path opacity="0.2" d="M369.09 256.25C368.65 262.91 363.18 264.74 360.5 265.12C360.863 263.899 360.979 262.617 360.84 261.35L369.09 256.25Z" fill="black"/>
<path d="M370.37 266.13L359.77 270.92L359.15 267.08L355.25 268.45C354.57 268.689 353.99 269.151 353.605 269.761C353.221 270.371 353.053 271.093 353.13 271.81L353.57 276.02L358.95 273.02L361.63 276.81L374.36 270.68L370.37 266.13Z" fill="#658CC8"/>
<path opacity="0.3" d="M370.37 266.13L359.77 270.92L359.15 267.08L355.25 268.45C354.57 268.689 353.99 269.151 353.605 269.761C353.221 270.371 353.053 271.093 353.13 271.81L353.57 276.02L358.95 273.02L361.63 276.81L374.36 270.68L370.37 266.13Z" fill="white"/>
<path d="M348.91 235.62C348.91 235.62 347.26 246.3 352.91 250.43C358.56 254.56 358.63 234.67 358.63 234.67L348.91 235.62Z" fill="#263238"/>
<path d="M369.36 259C368.165 260.755 366.428 262.071 364.414 262.744C362.4 263.418 360.221 263.413 358.21 262.73C355.601 261.901 353.404 260.115 352.06 257.73C351.873 257.406 351.703 257.072 351.55 256.73C348.78 250.19 347.92 238.73 354.84 234.51C356.365 233.572 358.105 233.039 359.894 232.961C361.683 232.882 363.462 233.261 365.064 234.062C366.666 234.863 368.037 236.059 369.047 237.537C370.058 239.015 370.675 240.727 370.84 242.51C371.7 250 372.55 254.46 369.36 259Z" fill="#E4897B"/>
<path d="M359.73 246.42C359.88 247.03 359.6 247.59 359.19 247.66C358.78 247.73 358.38 247.28 358.27 246.66C358.16 246.04 358.41 245.49 358.81 245.43C359.21 245.37 359.62 245.8 359.73 246.42Z" fill="#263238"/>
<path d="M352.76 247.59C352.91 248.2 352.62 248.76 352.22 248.83C351.82 248.9 351.4 248.44 351.3 247.83C351.2 247.22 351.44 246.66 351.84 246.59C352.24 246.52 352.66 247 352.76 247.59Z" fill="#263238"/>
<path d="M355 247.52C354.582 249.529 353.888 251.47 352.94 253.29C353.407 253.514 353.916 253.635 354.433 253.645C354.951 253.656 355.465 253.555 355.94 253.35L355 247.52Z" fill="#DE5753"/>
<path d="M349.68 245.05C349.743 245.069 349.809 245.072 349.874 245.06C349.938 245.048 349.998 245.02 350.05 244.98C350.39 244.669 350.796 244.441 351.239 244.313C351.681 244.184 352.147 244.159 352.6 244.24C352.647 244.254 352.696 244.258 352.744 244.252C352.792 244.246 352.838 244.23 352.88 244.206C352.923 244.182 352.959 244.149 352.988 244.11C353.017 244.071 353.038 244.027 353.05 243.98C353.075 243.887 353.063 243.788 353.016 243.704C352.969 243.62 352.892 243.558 352.8 243.53C352.23 243.411 351.639 243.43 351.078 243.585C350.516 243.74 349.999 244.026 349.57 244.42C349.502 244.489 349.463 244.583 349.463 244.68C349.463 244.777 349.502 244.871 349.57 244.94C349.6 244.983 349.637 245.021 349.68 245.05Z" fill="#263238"/>
<path d="M360.65 243.4C360.721 243.385 360.787 243.35 360.84 243.3C360.889 243.216 360.904 243.116 360.882 243.021C360.86 242.926 360.802 242.843 360.72 242.79C360.227 242.478 359.666 242.29 359.084 242.241C358.503 242.193 357.918 242.285 357.38 242.51C357.293 242.553 357.227 242.629 357.195 242.72C357.163 242.812 357.168 242.912 357.21 243C357.255 243.085 357.331 243.15 357.423 243.179C357.514 243.209 357.614 243.202 357.7 243.16C358.131 243 358.594 242.94 359.051 242.987C359.509 243.034 359.95 243.186 360.34 243.43C360.391 243.449 360.445 243.455 360.498 243.45C360.552 243.445 360.604 243.428 360.65 243.4Z" fill="#263238"/>
<path d="M363.73 233.86V237.27C364.33 237.472 364.833 237.893 365.137 238.449C365.44 239.005 365.524 239.655 365.37 240.27C364.62 243.22 366.75 247.42 369.12 248.91C369.12 248.91 369.05 247.67 370.12 247.84C371.19 248.01 371.67 254.42 370.01 257.71C370.01 257.71 372.73 254.59 373.66 247.71C374.51 241.32 374.1 236.14 372.54 233.9L363.73 233.86Z" fill="#263238"/>
<path d="M375.23 248C374.677 249.855 373.411 251.416 371.71 252.34C369.45 253.55 367.76 251.65 367.92 249.23C368.09 247.08 369.44 243.79 371.92 243.6C374.4 243.41 375.88 245.75 375.23 248Z" fill="#E4897B"/>
<path d="M356.82 255.22C357.355 256.034 357.829 256.887 358.24 257.77L358.74 257.63C360.98 256.98 361.8 255.93 362.03 254.98C362.137 254.509 362.137 254.021 362.03 253.55C361.966 253.284 361.865 253.028 361.73 252.79C360.53 253.81 359.125 254.56 357.61 254.99C357.12 255.15 356.82 255.22 356.82 255.22Z" fill="#263238"/>
<path d="M357.58 255L358.02 255.74C360.13 255.12 361.52 254.4 362.02 253.56C361.956 253.294 361.855 253.038 361.72 252.8C360.514 253.822 359.102 254.573 357.58 255Z" fill="white"/>
<path d="M358.74 257.63C360.98 256.98 361.8 255.93 362.03 254.98C361.182 255.241 360.389 255.655 359.69 256.2C359.232 256.566 358.9 257.066 358.74 257.63Z" fill="#DE5753"/>
<path d="M368.29 246.31L367.29 245.72C367.29 245.72 367.92 249.81 366.62 250.96C366.62 250.96 362.12 251.44 360.55 251.86C359.473 252.279 358.582 253.07 358.04 254.09C358.04 254.09 354.51 253.34 352.98 255.99C351.71 254.857 350.706 253.457 350.04 251.89C350.04 251.89 350.16 259.37 354.35 263.35C358.54 267.33 365.35 265.35 368.55 262.24C371.75 259.13 368.29 246.31 368.29 246.31ZM365.29 258.1C365.02 258.501 364.65 258.824 364.216 259.037C363.783 259.251 363.301 259.347 362.819 259.317C362.337 259.286 361.871 259.13 361.468 258.864C361.064 258.598 360.738 258.231 360.52 257.8L359.12 258.57C359.12 258.57 360.66 259.87 359.49 261.07C358.32 262.27 354.7 261.84 354.33 258.39C353.96 254.94 358.33 254.55 358.33 254.55C358.875 254 359.525 253.565 360.241 253.271C360.957 252.977 361.726 252.831 362.5 252.84C363.102 252.865 363.688 253.046 364.199 253.365C364.71 253.685 365.129 254.132 365.415 254.663C365.7 255.194 365.843 255.79 365.828 256.393C365.813 256.995 365.641 257.584 365.33 258.1H365.29Z" fill="#263238"/>
<path d="M363.72 237.27C363.72 237.27 346.72 243.07 348.72 231.61C348.72 231.61 357.89 226.21 365.88 227.72C373.87 229.23 373.25 237.52 373.25 237.52L363.72 237.27Z" fill="#263238"/>
<path d="M397.65 295.44C396.65 292.18 391.04 274.78 387.71 273.04C385.743 274.895 384.162 277.121 383.06 279.59C380.79 284.21 380.3 293.47 380.3 293.47L381.77 295.47L397.65 295.44Z" fill="#658CC8"/>
<path opacity="0.2" d="M397.65 295.44C396.65 292.18 391.04 274.78 387.71 273.04C385.743 274.895 384.162 277.121 383.06 279.59C380.79 284.21 380.3 293.47 380.3 293.47L381.77 295.47L397.65 295.44Z" fill="white"/>
<path opacity="0.6" d="M487.88 222.45H404.59V295.43H487.88V222.45Z" fill="white"/>
<path d="M425.49 295.44C428.64 292.38 430.84 289.96 430.84 289.96L429.68 272.24C425.96 274.24 413.93 290.62 409.46 295.44H425.49Z" fill="#263238"/>
<path opacity="0.3" d="M425.49 295.44C428.64 292.38 430.84 289.96 430.84 289.96L429.68 272.24C425.96 274.24 413.93 290.62 409.46 295.44H425.49Z" fill="white"/>
<path opacity="0.2" d="M425.49 295.44C428.64 292.39 430.84 289.96 430.84 289.96L430.57 285.76L429.24 281.67C427.501 283.48 426.188 285.656 425.397 288.038C424.606 290.42 424.358 292.949 424.67 295.44H425.49Z" fill="black"/>
<path d="M463.2 249.22C462.34 252.52 467.06 261.64 465.15 278.22C463.24 294.8 445.04 293.8 436.86 288.22C428.68 282.64 430.1 252.68 432.91 246.76C435.72 240.84 463.2 249.22 463.2 249.22Z" fill="#263238"/>
<path d="M461.91 295.44C462.51 293.17 463.23 290.68 464.09 287.92C464.703 285.92 465.387 283.797 466.14 281.55C466.713 279.85 467.333 278 468 276C463.94 274.708 459.792 273.705 455.59 273C451.155 272.22 446.671 271.749 442.17 271.59C436.36 271.59 429.67 272.2 429.67 272.2C429.67 272.2 428.72 272.42 428.13 278.59C427.81 281.97 427.49 287.33 427.53 295.4L461.91 295.44Z" fill="#263238"/>
<path opacity="0.3" d="M461.91 295.44C462.51 293.17 463.23 290.68 464.09 287.92C464.703 285.92 465.387 283.797 466.14 281.55C466.713 279.85 467.333 278 468 276C463.94 274.708 459.792 273.705 455.59 273C451.155 272.22 446.671 271.749 442.17 271.59C436.36 271.59 429.67 272.2 429.67 272.2C429.67 272.2 428.72 272.42 428.13 278.59C427.81 281.97 427.49 287.33 427.53 295.4L461.91 295.44Z" fill="white"/>
<path d="M447.55 270.77C451.14 270.99 456.88 270.95 460.55 276.69H453.75L457.45 281.21C457.45 281.21 445.54 284.05 441.82 291.86C441.82 291.86 436.48 282.6 433.58 280.45C435.349 278.689 437.371 277.202 439.58 276.04C437.655 275.218 435.642 274.621 433.58 274.26C433.58 274.26 442.7 270.48 447.55 270.77Z" fill="white"/>
<path d="M454.23 274.14C454.23 274.14 445.01 284.54 442.16 289.56C440.864 284.068 440.999 278.335 442.55 272.91L454.23 274.14Z" fill="#658CC8"/>
<path opacity="0.6" d="M454.23 274.14C454.23 274.14 445.01 284.54 442.16 289.56C440.864 284.068 440.999 278.335 442.55 272.91L454.23 274.14Z" fill="white"/>
<path d="M444.65 278.23C452.02 277.29 454.23 274.14 454.23 274.14C449.55 269.73 453.44 262.14 453.44 262.14L444.57 263.8C444.772 265.034 444.889 266.28 444.92 267.53C444.98 272.91 442.55 272.96 442.55 272.96C441 275.83 444.65 278.23 444.65 278.23Z" fill="#F7F1FB"/>
<path opacity="0.2" d="M444.57 263.75C444.772 264.984 444.889 266.23 444.92 267.48C450.92 267.48 453.44 262.09 453.44 262.09L444.57 263.75Z" fill="black"/>
<path d="M449.47 239C441.76 238.58 439.06 242.57 438.06 250.48C436.81 260.37 438.62 267.54 448.38 265.95C461.62 263.74 462.27 239.65 449.47 239Z" fill="#D8CFDF"/>
<path d="M443.06 250.27C442.385 251.391 441.576 252.425 440.65 253.35C440.857 253.687 441.154 253.958 441.507 254.135C441.861 254.312 442.257 254.386 442.65 254.35L443.06 250.27Z" fill="#D4827D"/>
<path d="M447.82 249.9C447.77 250.54 448.07 251.07 448.49 251.11C448.91 251.15 449.29 250.65 449.34 250.02C449.39 249.39 449.09 248.85 448.67 248.82C448.25 248.79 447.87 249.27 447.82 249.9Z" fill="#263238"/>
<path d="M448.84 248.86L447.51 248.22C447.51 248.22 448.1 249.43 448.84 248.86Z" fill="#263238"/>
<path d="M440 249.16C439.95 249.79 440.25 250.33 440.67 250.36C441.09 250.39 441.47 249.91 441.52 249.28C441.57 248.65 441.27 248.1 440.85 248.07C440.43 248.04 440 248.52 440 249.16Z" fill="#263238"/>
<path d="M441 248.12L439.67 247.47C439.67 247.47 440.25 248.68 441 248.12Z" fill="#263238"/>
<path d="M451.47 246.28C451.414 246.282 451.359 246.268 451.31 246.242C451.261 246.216 451.22 246.177 451.19 246.13C450.815 245.714 450.349 245.39 449.829 245.182C449.309 244.974 448.748 244.888 448.19 244.93C448.099 244.933 448.011 244.902 447.942 244.842C447.874 244.783 447.83 244.7 447.82 244.61C447.814 244.519 447.845 244.429 447.905 244.36C447.964 244.291 448.049 244.248 448.14 244.24C448.811 244.193 449.485 244.303 450.106 244.562C450.728 244.82 451.28 245.22 451.72 245.73C451.773 245.804 451.795 245.895 451.782 245.984C451.769 246.074 451.721 246.155 451.65 246.21C451.597 246.249 451.535 246.273 451.47 246.28Z" fill="#263238"/>
<path d="M439.49 244.76C439.431 244.759 439.373 244.743 439.323 244.713C439.272 244.684 439.229 244.641 439.2 244.59C439.177 244.551 439.161 244.508 439.155 244.464C439.148 244.419 439.15 244.374 439.161 244.33C439.173 244.286 439.192 244.245 439.22 244.209C439.247 244.173 439.281 244.143 439.32 244.12C439.815 243.783 440.381 243.564 440.974 243.481C441.567 243.398 442.171 243.452 442.74 243.64C442.822 243.677 442.887 243.745 442.921 243.829C442.954 243.913 442.954 244.006 442.92 244.09C442.883 244.172 442.815 244.237 442.731 244.27C442.647 244.304 442.554 244.304 442.47 244.27C442 244.126 441.504 244.091 441.019 244.168C440.534 244.244 440.073 244.429 439.67 244.71C439.615 244.74 439.553 244.757 439.49 244.76Z" fill="#263238"/>
<path d="M443.59 257.43C443.904 258.318 444.155 259.227 444.34 260.15C444.506 260.16 444.673 260.16 444.84 260.15C447.1 260.05 448.11 259.26 448.55 258.41C448.749 257.988 448.848 257.526 448.84 257.06C448.841 256.797 448.807 256.535 448.74 256.28C447.377 256.964 445.883 257.346 444.36 257.4L443.59 257.43Z" fill="#263238"/>
<path d="M444.36 257.38L444.6 258.18C446.72 258.07 448.21 257.72 448.84 257.04C448.841 256.777 448.807 256.514 448.74 256.26C447.377 256.944 445.883 257.326 444.36 257.38Z" fill="white"/>
<path d="M444.84 260.13C447.1 260.03 448.11 259.24 448.55 258.39C447.69 258.444 446.847 258.651 446.06 259C445.545 259.24 445.118 259.635 444.84 260.13Z" fill="#DE5753"/>
<path d="M457.19 252.4C457.19 252.4 453.93 245.87 454.74 241.01C454.74 241.01 439.81 233.94 438.21 249.4C438.21 249.4 437.47 235.55 450.73 235.97C463.99 236.39 462.88 255.77 455.73 261.17C455.72 261.17 459.2 256.49 457.19 252.4Z" fill="#263238"/>
<path d="M455.84 254C455.9 253.56 456.047 253.136 456.271 252.753C456.495 252.369 456.792 252.034 457.146 251.765C457.5 251.497 457.903 251.301 458.333 251.189C458.762 251.076 459.21 251.049 459.65 251.11C462.02 251.5 462.89 256.47 456.88 257.32C456 257.41 455.59 256.55 455.84 254Z" fill="#654182"/>
<path d="M452.69 240.25C452.167 246.625 453.744 252.995 457.18 258.39C461.52 264.94 456.54 270.67 456.54 270.67C456.54 270.67 466.83 267.12 462.34 252.52C462.34 252.52 467.18 239.47 457.66 235.96C457.66 235.96 457.61 231.96 449 232.74C440.39 233.52 433.47 240.87 432.15 250.27C430.83 259.67 435.74 270.16 435.74 270.16C435.74 270.16 430.53 236.84 452.69 240.25Z" fill="#263238"/>
<path d="M453.17 240.4C452.603 242.633 452.387 244.941 452.53 247.24C452.665 249.568 453.037 251.877 453.64 254.13C454.24 256.399 455.109 258.588 456.23 260.65C457.328 262.73 458.807 264.586 460.59 266.12C458.743 264.638 457.19 262.823 456.01 260.77C454.805 258.724 453.849 256.542 453.16 254.27C452.458 251.991 451.996 249.645 451.78 247.27C451.545 244.862 451.69 242.433 452.21 240.07L453.17 240.4Z" fill="#263238"/>
<path opacity="0.2" d="M461.91 295.44C462.04 294.96 462.17 294.44 462.31 293.98C461.38 290.72 460.42 293.27 460.42 293.27C460.265 293.986 460.152 294.711 460.08 295.44H461.91Z" fill="black"/>
<path d="M474.92 295.44C471.44 286.16 468 276 468 276C460.86 278.82 460.47 293.43 460.47 293.43L461.59 295.43L474.92 295.44Z" fill="#263238"/>
<path opacity="0.3" d="M474.92 295.44C471.44 286.16 468 276 468 276C460.86 278.82 460.47 293.43 460.47 293.43L461.59 295.43L474.92 295.44Z" fill="white"/>
<path opacity="0.5" d="M317.47 222.45H234.18V295.43H317.47V222.45Z" fill="white"/>
<path d="M276.97 234.32L268.61 242.69H266.88V234.32H276.97Z" fill="white"/>
<path d="M278.72 236.82V242.69H272.85L278.72 236.82Z" fill="white"/>
<path d="M282.94 241.88L279.77 240.88V236.26L282.94 235.26V241.88Z" fill="white"/>
<path d="M274.91 250.36C272.166 250.361 269.506 249.41 267.385 247.669C265.263 245.928 263.811 243.506 263.275 240.814C262.74 238.123 263.154 235.329 264.448 232.909C265.742 230.489 267.835 228.592 270.37 227.542C272.905 226.492 275.726 226.354 278.352 227.151C280.978 227.948 283.246 229.632 284.77 231.914C286.294 234.196 286.98 236.936 286.71 239.667C286.44 242.398 285.231 244.95 283.29 246.89C282.192 247.993 280.886 248.868 279.447 249.464C278.009 250.059 276.467 250.364 274.91 250.36ZM274.91 227.65C273.123 227.649 271.364 228.088 269.787 228.93C268.211 229.771 266.867 230.989 265.874 232.474C264.88 233.959 264.269 235.667 264.094 237.445C263.919 239.223 264.185 241.017 264.869 242.668C265.553 244.319 266.634 245.775 268.016 246.908C269.398 248.041 271.038 248.815 272.79 249.163C274.543 249.51 276.355 249.42 278.064 248.899C279.773 248.379 281.328 247.445 282.59 246.18C284.106 244.661 285.137 242.726 285.554 240.621C285.972 238.516 285.756 236.334 284.934 234.352C284.112 232.369 282.722 230.675 280.938 229.482C279.154 228.289 277.056 227.652 274.91 227.65Z" fill="white"/>
<path d="M282.587 230.13L266.528 246.188L267.235 246.895L283.294 230.837L282.587 230.13Z" fill="white"/>
<path d="M139.75 428.8L164.53 426.37V391.54H174.35V426.36L199.24 428.8C200.433 428.919 201.538 429.477 202.342 430.366C203.146 431.255 203.591 432.411 203.59 433.61V437.33H135.39V433.61C135.392 432.41 135.838 431.254 136.644 430.366C137.45 429.477 138.556 428.919 139.75 428.8Z" fill="#263238"/>
<path opacity="0.3" d="M139.75 428.8L164.53 426.37V391.54H174.35V426.36L199.24 428.8C200.433 428.919 201.538 429.477 202.342 430.366C203.146 431.255 203.591 432.411 203.59 433.61V437.33H135.39V433.61C135.392 432.41 135.838 431.254 136.644 430.366C137.45 429.477 138.556 428.919 139.75 428.8Z" fill="white"/>
<path d="M194.55 441.94C194.55 443.21 194.927 444.451 195.632 445.507C196.337 446.563 197.34 447.385 198.513 447.871C199.686 448.357 200.977 448.484 202.222 448.237C203.468 447.989 204.612 447.377 205.51 446.48C206.407 445.582 207.019 444.438 207.267 443.193C207.514 441.947 207.387 440.656 206.901 439.483C206.415 438.31 205.593 437.307 204.537 436.602C203.481 435.897 202.24 435.52 200.97 435.52C199.267 435.52 197.634 436.196 196.43 437.4C195.226 438.604 194.55 440.237 194.55 441.94Z" fill="#654182"/>
<path d="M144.44 441.94C144.442 443.212 144.067 444.456 143.362 445.514C142.657 446.573 141.654 447.398 140.48 447.887C139.306 448.375 138.013 448.505 136.765 448.258C135.518 448.012 134.371 447.402 133.47 446.504C132.57 445.606 131.956 444.461 131.706 443.214C131.455 441.967 131.581 440.674 132.066 439.499C132.55 438.323 133.373 437.317 134.429 436.609C135.486 435.901 136.728 435.522 138 435.52C138.844 435.519 139.681 435.684 140.461 436.006C141.242 436.328 141.952 436.8 142.55 437.396C143.148 437.992 143.622 438.701 143.947 439.48C144.271 440.26 144.439 441.096 144.44 441.94Z" fill="#654182"/>
<path d="M171.89 399.02H166.95C165.855 399.02 164.804 398.585 164.03 397.81C163.255 397.036 162.82 395.985 162.82 394.89V368.02H176.05V394.89C176.05 395.435 175.942 395.974 175.733 396.477C175.523 396.981 175.216 397.437 174.83 397.821C174.443 398.205 173.984 398.509 173.48 398.714C172.975 398.92 172.435 399.024 171.89 399.02Z" fill="#263238"/>
<path opacity="0.5" d="M171.89 399.02H166.95C165.855 399.02 164.804 398.585 164.03 397.81C163.255 397.036 162.82 395.985 162.82 394.89V368.02H176.05V394.89C176.05 395.435 175.942 395.974 175.733 396.477C175.523 396.981 175.216 397.437 174.83 397.821C174.443 398.205 173.984 398.509 173.48 398.714C172.975 398.92 172.435 399.024 171.89 399.02Z" fill="#654182"/>
<path d="M146 313.55C146 313.55 144.09 360 157 368H142.26C142.26 368 130.82 352.18 134.05 313.55H146Z" fill="#263238"/>
<path opacity="0.5" d="M146 313.55C146 313.55 144.09 360 157 368H142.26C142.26 368 130.82 352.18 134.05 313.55H146Z" fill="#654182"/>
<path d="M142.23 361.5H198.4C199.726 361.5 200.998 362.027 201.936 362.964C202.873 363.902 203.4 365.174 203.4 366.5V371.56H137.23V366.5C137.23 365.174 137.757 363.902 138.694 362.964C139.632 362.027 140.904 361.5 142.23 361.5Z" fill="#D5ABF7"/>
<path d="M204.14 366.53H136.48C135.37 366.53 134.47 367.43 134.47 368.54V369.55C134.47 370.66 135.37 371.56 136.48 371.56H204.14C205.25 371.56 206.15 370.66 206.15 369.55V368.54C206.15 367.43 205.25 366.53 204.14 366.53Z" fill="#658CC8"/>
<path opacity="0.6" d="M204.14 366.53H136.48C135.37 366.53 134.47 367.43 134.47 368.54V369.55C134.47 370.66 135.37 371.56 136.48 371.56H204.14C205.25 371.56 206.15 370.66 206.15 369.55V368.54C206.15 367.43 205.25 366.53 204.14 366.53Z" fill="white"/>
<path d="M132.46 322.99H152.04C160.092 322.99 166.62 316.462 166.62 308.41V303.23C166.62 295.178 160.092 288.65 152.04 288.65H132.46C124.408 288.65 117.88 295.178 117.88 303.23V308.41C117.88 316.462 124.408 322.99 132.46 322.99Z" fill="#D5ABF7"/>
<path d="M194.64 281.52C197.29 282.61 212.32 301.78 212.71 305.82C213.2 310.72 208.23 311.65 202.82 310.38C197.41 309.11 201.51 303.8 201.51 303.8L193.18 292.14L194.64 281.52Z" fill="#263238"/>
<path d="M192.24 329.26H173.24C173.24 329.26 176.9 304.16 177.5 303.8C178.1 303.44 191.38 302.55 191.38 302.55V316.55L192.24 329.26Z" fill="#263238"/>
<path d="M170.58 274.71C171.27 274.57 178.52 271.57 182.46 274.6C186.4 277.63 190.84 287.72 183.78 291.38C176.72 295.04 167.71 293.13 166.63 287.62C165.55 282.11 170.58 274.71 170.58 274.71Z" fill="#263238"/>
<path d="M164.93 252.08C164.93 252.08 160.17 263.08 163.5 267.16C166.83 271.24 188.55 274.48 192.32 270.65C196.09 266.82 191.15 251.65 191.15 251.65L164.93 252.08Z" fill="#263238"/>
<path d="M250.31 413.38L244.65 414.74L241.79 406.93L239.19 399.83L245.63 397.08L248.11 405.7L250.31 413.38Z" fill="#E4897B"/>
<path opacity="0.2" d="M248.11 405.7L241.79 406.93L239.19 399.83L245.63 397.08L248.11 405.7Z" fill="black"/>
<path d="M247.54 401.58L239.7 404.49C239.7 404.49 218.77 352.17 214.47 351.99C210.17 351.81 166.37 371.93 155.4 360.77C144.43 349.61 160.29 322.71 160.29 322.71C160.29 322.71 186.69 318.95 188.68 324.91C189.172 326.666 189.546 328.454 189.8 330.26C190.1 332.08 190.3 333.61 190.3 333.61C191.12 333.41 217.62 326.61 228.06 333.61C238.69 340.79 247.54 401.58 247.54 401.58Z" fill="#263238"/>
<path opacity="0.2" d="M247.54 401.58L239.7 404.49C239.7 404.49 218.77 352.17 214.47 351.99C210.17 351.81 166.37 371.93 155.4 360.77C144.43 349.61 160.29 322.71 160.29 322.71C160.29 322.71 186.69 318.95 188.68 324.91C189.172 326.666 189.546 328.454 189.8 330.26C190.1 332.08 190.3 333.61 190.3 333.61C191.12 333.41 217.62 326.61 228.06 333.61C238.69 340.79 247.54 401.58 247.54 401.58Z" fill="white"/>
<path d="M202.42 435.7L196.78 434.25L197.87 426.17L198.87 418.75L205.84 419.38L204.03 428.02L202.42 435.7Z" fill="#E4897B"/>
<path opacity="0.2" d="M203.99 428.19L197.83 426.32L198.85 418.83L205.83 419.42L203.99 428.19Z" fill="black"/>
<path d="M236.46 401.59L247.88 397.71L248.37 402.39L239.71 405.45L236.46 401.59Z" fill="#263238"/>
<path d="M174.36 363.45C174.36 363.45 176.14 363.5 203.83 362.21C203.83 362.21 199.7 396.82 197.44 422.74L205.72 424.15C205.72 424.15 225.5 368.66 225.29 359.84C225.08 351.02 215 348.44 215 348.44C215 348.44 195.24 359.84 174.36 363.45Z" fill="#263238"/>
<path opacity="0.1" d="M174.36 363.45C174.36 363.45 176.14 363.5 203.83 362.21C203.83 362.21 199.7 396.82 197.44 422.74L205.72 424.15C205.72 424.15 225.5 368.66 225.29 359.84C225.08 351.02 215 348.44 215 348.44C215 348.44 195.24 359.84 174.36 363.45Z" fill="white"/>
<path d="M196.23 420.23L207.61 421.52L205.41 425.98L196.2 424.8L196.23 420.23Z" fill="#263238"/>
<path opacity="0.3" d="M190.3 333.61L174.86 336.83C174.86 336.83 183.4 332.12 189.8 330.26C190.1 332.08 190.3 333.61 190.3 333.61Z" fill="black"/>
<path d="M160.93 318.61L160.29 322.72L188.68 324.91L189.43 320.05L160.93 318.61Z" fill="#263238"/>
<path opacity="0.2" d="M160.93 318.61L160.29 322.72L188.68 324.91L189.43 320.05L160.93 318.61Z" fill="black"/>
<path d="M170.613 318.338L169.211 318.194L168.476 325.336L169.879 325.481L170.613 318.338Z" fill="#263238"/>
<path d="M182.77 320.053L176.553 319.653L176.249 324.373L182.466 324.773L182.77 320.053Z" fill="white"/>
<path d="M188.053 319.107L186.651 318.963L185.916 326.105L187.319 326.249L188.053 319.107Z" fill="#263238"/>
<path opacity="0.2" d="M170.613 318.338L169.211 318.194L168.476 325.336L169.879 325.481L170.613 318.338Z" fill="white"/>
<path opacity="0.2" d="M188.053 319.107L186.651 318.963L185.916 326.105L187.319 326.249L188.053 319.107Z" fill="white"/>
<path d="M192.78 280.9C188.039 277.884 182.609 276.122 177 275.78C167.89 275.31 159.7 280.33 159.7 280.33L160.91 318.61L189.41 320.05C189.41 320.05 198.42 294.51 192.78 280.9Z" fill="#658CC8"/>
<path d="M191.39 255.32C191.39 255.32 195.5 236.83 178.39 238.66C156.92 240.96 165.07 267.66 175.72 265.99C186.37 264.32 191.39 255.32 191.39 255.32Z" fill="#263238"/>
<path opacity="0.2" d="M187.86 280.09L188.37 288.15L182.19 282.61C182.19 282.61 181.77 286.61 180.34 293.26C179.89 289.798 178.912 286.425 177.44 283.26L171.6 289.2L167.78 280.09C167.78 280.09 179.48 271.61 187.86 280.09Z" fill="black"/>
<path d="M180.07 286.63L177 279.05L171.33 276.51C176.33 273.05 173.82 265.31 173.82 265.31L181.91 268.16C181.537 269.287 181.246 270.44 181.04 271.61C180.2 276.61 182.47 277.05 182.47 277.05L180.91 279.31L180.07 286.63Z" fill="#E4897B"/>
<path opacity="0.2" d="M181.9 268.16C181.527 269.287 181.236 270.44 181.03 271.61C177.16 270.06 173.81 265.31 173.81 265.31L181.9 268.16Z" fill="black"/>
<path d="M182.18 244C189.49 244.63 191.5 248.74 191.39 256.31C191.25 265.78 188.59 272.31 179.63 269.49C167.46 265.7 170.05 243 182.18 244Z" fill="#E4897B"/>
<path d="M186.7 255.5C187.193 256.641 187.821 257.719 188.57 258.71C188.331 258.995 188.017 259.208 187.664 259.325C187.311 259.441 186.932 259.457 186.57 259.37L186.7 255.5Z" fill="#DE5753"/>
<path d="M182.28 254.52C182.28 255.12 181.89 255.59 181.49 255.52C181.09 255.45 180.79 254.99 180.83 254.39C180.87 253.79 181.22 253.32 181.62 253.34C182.02 253.36 182.32 253.92 182.28 254.52Z" fill="#263238"/>
<path d="M181.46 253.4L182.8 252.97C182.8 252.97 182.08 254 181.46 253.4Z" fill="#263238"/>
<path d="M189.77 254.86C189.77 255.46 189.37 255.93 188.97 255.86C188.57 255.79 188.28 255.33 188.31 254.73C188.34 254.13 188.71 253.66 189.11 253.68C189.51 253.7 189.8 254.26 189.77 254.86Z" fill="#263238"/>
<path d="M188.94 253.74L190.28 253.31C190.28 253.31 189.56 254.37 188.94 253.74Z" fill="#263238"/>
<path d="M179.38 250.66C179.334 250.661 179.288 250.652 179.245 250.635C179.202 250.618 179.163 250.592 179.13 250.56C179.095 250.527 179.067 250.488 179.048 250.444C179.029 250.4 179.02 250.353 179.02 250.305C179.02 250.257 179.029 250.21 179.048 250.166C179.067 250.122 179.095 250.083 179.13 250.05C179.615 249.623 180.193 249.316 180.818 249.153C181.444 248.99 182.098 248.975 182.73 249.11C182.823 249.132 182.904 249.188 182.957 249.269C183.009 249.349 183.028 249.446 183.01 249.54C183 249.587 182.982 249.631 182.955 249.671C182.928 249.71 182.894 249.744 182.854 249.77C182.814 249.796 182.769 249.814 182.722 249.823C182.675 249.831 182.627 249.83 182.58 249.82C182.068 249.715 181.539 249.726 181.032 249.853C180.525 249.979 180.053 250.217 179.65 250.55C179.614 250.585 179.572 250.613 179.526 250.632C179.48 250.651 179.43 250.66 179.38 250.66Z" fill="#263238"/>
<path d="M190.84 250.83C190.757 250.828 190.677 250.8 190.61 250.75C190.273 250.437 189.869 250.203 189.43 250.067C188.99 249.93 188.526 249.894 188.07 249.96C187.979 249.985 187.881 249.972 187.799 249.925C187.716 249.879 187.656 249.801 187.63 249.71C187.605 249.617 187.617 249.518 187.664 249.434C187.711 249.35 187.788 249.288 187.88 249.26C188.445 249.163 189.025 249.195 189.576 249.354C190.127 249.514 190.634 249.796 191.06 250.18C191.098 250.209 191.129 250.246 191.153 250.287C191.176 250.329 191.191 250.375 191.197 250.422C191.203 250.47 191.199 250.518 191.185 250.564C191.172 250.61 191.15 250.653 191.12 250.69C191.087 250.733 191.045 250.769 190.997 250.793C190.948 250.817 190.894 250.83 190.84 250.83Z" fill="#263238"/>
<path d="M173.14 255.62C173.14 255.62 177.07 249.92 176.95 245.24C176.95 245.24 191.95 240.57 191.39 255.32C191.39 255.32 193.92 242.4 181.39 241.03C168.86 239.66 167.33 258.03 173.39 264.03C173.35 264.07 170.7 259.2 173.14 255.62Z" fill="#263238"/>
<path d="M174.2 257.27C174.207 256.845 174.129 256.422 173.971 256.027C173.814 255.632 173.579 255.272 173.282 254.968C172.984 254.664 172.629 254.422 172.238 254.256C171.846 254.089 171.425 254.003 171 254C168.72 254.06 167.24 258.61 172.77 260.21C173.57 260.48 174.09 259.73 174.2 257.27Z" fill="#E4897B"/>
<path d="M187 262.35C186.561 263.132 186.177 263.944 185.85 264.78L185.39 264.68C183.29 264.21 182.48 263.31 182.21 262.44C182.082 262.015 182.062 261.565 182.15 261.13C182.189 260.884 182.264 260.645 182.37 260.42C183.535 261.281 184.872 261.882 186.29 262.18C186.7 262.3 187 262.35 187 262.35Z" fill="#263238"/>
<path d="M186.27 262.18L185.91 262.89C183.91 262.45 182.61 261.89 182.13 261.13C182.169 260.884 182.244 260.645 182.35 260.42C183.515 261.281 184.852 261.882 186.27 262.18Z" fill="white"/>
<path d="M185.37 264.68C183.27 264.21 182.46 263.31 182.19 262.44C182.983 262.641 183.734 262.98 184.41 263.44C184.848 263.747 185.183 264.179 185.37 264.68Z" fill="#DE5753"/>
<path d="M182 244.54C182 244.54 178 256.3 170.47 255.54C162.94 254.78 175.9 240.54 175.9 240.54C175.9 240.54 188.66 236.94 194.19 244.02C199.72 251.1 191.41 255.38 191.41 255.38C191.41 255.38 192.65 246.05 182 244.54Z" fill="#263238"/>
<path d="M175.93 254.58C175.88 254.579 175.831 254.564 175.79 254.535C175.749 254.507 175.718 254.467 175.7 254.42C175.677 254.356 175.68 254.286 175.708 254.225C175.736 254.163 175.787 254.115 175.85 254.09C181.85 251.82 181.73 243.76 181.73 243.68C181.73 243.614 181.756 243.55 181.803 243.503C181.85 243.456 181.914 243.43 181.98 243.43C182.012 243.429 182.045 243.434 182.075 243.445C182.105 243.457 182.133 243.474 182.156 243.497C182.18 243.519 182.198 243.546 182.211 243.576C182.223 243.606 182.23 243.638 182.23 243.67C182.23 243.75 182.35 252.16 176.02 254.56L175.93 254.58Z" fill="#263238"/>
<path d="M173.51 273.55L176.99 279.05L172.63 286.63L169.47 276.9L173.51 273.55Z" fill="#658CC8"/>
<path d="M180.9 274.6V279.31L186.05 285L184.37 276.83L180.9 274.6Z" fill="#658CC8"/>
<path d="M259.67 424.36C258.813 423.966 257.891 423.732 256.95 423.67C256.95 423.67 253.68 421.75 250.44 414.28H246.8C246.185 414.286 245.586 414.481 245.085 414.839C244.584 415.196 244.205 415.7 244 416.28C243.942 416.441 243.908 416.609 243.9 416.78C243.938 417.662 244.032 418.54 244.18 419.41C244.717 422.304 245.428 425.162 246.31 427.97L246.92 427.82L245.8 422.38C245.43 420.54 247.37 422.32 248.27 424.18C249.17 426.04 250.55 427.92 254.57 427C259.26 425.88 261.14 425.21 259.67 424.36Z" fill="#263238"/>
<path d="M249.78 412.32C249.78 412.32 254.33 421.83 256.95 423.67C256.95 423.67 253.44 425.76 249.78 421.1C245.05 415.1 243.9 416.76 243.9 416.76C243.995 415.721 244.186 414.694 244.47 413.69C245.18 411.75 249.78 412.32 249.78 412.32Z" fill="#E4897B"/>
<path d="M209.59 447C208.85 446.414 208.01 445.966 207.11 445.68C207.11 445.68 204.39 443.04 203.01 435.01L199.48 434.13C198.881 433.991 198.254 434.039 197.684 434.268C197.113 434.497 196.627 434.896 196.29 435.41C196.191 435.553 196.117 435.712 196.07 435.88C195.898 436.742 195.781 437.613 195.72 438.49C195.539 441.431 195.539 444.379 195.72 447.32H196.35L196.55 441.78C196.63 439.9 198.09 442.09 198.55 444.11C199.01 446.13 199.88 448.28 204 448.34C208.83 448.41 210.82 448.2 209.59 447Z" fill="#263238"/>
<path d="M202.84 433C202.84 433 205 443.33 207.11 445.73C207.11 445.73 203.2 446.93 200.75 441.54C197.59 434.54 196.07 435.93 196.07 435.93C196.407 434.942 196.835 433.988 197.35 433.08C198.5 431.34 202.84 433 202.84 433Z" fill="#E4897B"/>
<path d="M168.55 276.45C168.55 276.45 177.42 302.8 164.92 332.72L152.78 331.14L160.29 314.14L158.65 279.9L168.55 276.45Z" fill="#263238"/>
<path d="M185.37 277.39C185.37 277.39 189.43 283.93 188.94 303.8L191.39 331.93L193.75 330.26L191.82 316.54C191.82 316.54 196.95 292.39 194.64 281.54L185.37 277.39Z" fill="#263238"/>
<path d="M182.46 274.6C182.46 274.6 189.35 278.22 192.87 283.17L190.3 285.54L193.75 290.54L188.94 303.75C188.94 303.75 186.33 279 182.46 274.6Z" fill="#263238"/>
<path opacity="0.2" d="M182.46 274.6C182.46 274.6 189.35 278.22 192.87 283.17L190.3 285.54L193.75 290.54L188.94 303.75C188.94 303.75 186.33 279 182.46 274.6Z" fill="white"/>
<path d="M170.58 274.71C170.58 274.71 173.74 292.71 171.32 305.22L163.76 288.09L168.09 283.93L162.32 279.81C164.629 277.478 167.461 275.73 170.58 274.71Z" fill="#263238"/>
<path opacity="0.2" d="M170.58 274.71C170.58 274.71 173.74 292.71 171.32 305.22L163.76 288.09L168.09 283.93L162.32 279.81C164.629 277.478 167.461 275.73 170.58 274.71Z" fill="white"/>
<path d="M179.53 306.43L189.76 307.15C190.588 306.603 191.491 306.179 192.44 305.89C193.69 305.59 200.96 304.8 202.28 305.31C203.6 305.82 204.78 310.13 204.66 311.02C204.54 311.91 193.55 312.21 193.2 312.24C192.85 312.27 191.6 311.11 191.6 311.11L179.53 311V306.43Z" fill="#E4897B"/>
<path d="M158.65 279.86C151.99 283.86 148.36 305.41 152.78 308.78C157.2 312.15 187.57 312.24 187.57 312.24L188.57 305.82C188.57 305.82 162.48 303.21 161.15 300.68C159.82 298.15 160.29 288.15 160.29 288.15L158.65 279.86Z" fill="#263238"/>
<path d="M276.44 448.37H281.71L291.18 316.54H284.19L276.44 448.37Z" fill="#263238"/>
<path opacity="0.7" d="M276.44 448.37H281.71L290.72 323.09L291.18 316.76H284.19L283.81 323.09L276.44 448.37Z" fill="white"/>
<path opacity="0.2" d="M283.81 322.78H290.72L291.18 316.76H284.19L283.81 322.78Z" fill="black"/>
<path d="M237.77 448.37H243.04L243.9 316.54H236.91L237.77 448.37Z" fill="#263238"/>
<path opacity="0.7" d="M236.9 316.76L237.04 338.02L237.76 448.37H243.04L243.76 338.02L243.9 316.76H236.9Z" fill="white"/>
<path opacity="0.2" d="M236.9 316.76L237.04 338.26H243.76L243.9 316.76H236.9Z" fill="black"/>
<path d="M181.82 448.37H187.09L196.56 316.54H189.57L181.82 448.37Z" fill="#263238"/>
<path opacity="0.7" d="M181.82 448.37H187.09L196.1 323.09L196.56 316.76H189.57L189.19 323.09L181.82 448.37Z" fill="white"/>
<path opacity="0.2" d="M189.19 322.78H196.1L196.56 316.76H189.57L189.19 322.78Z" fill="black"/>
<path d="M336.73 448.37H342L334.25 316.54H327.26L336.73 448.37Z" fill="#263238"/>
<path opacity="0.7" d="M327.26 316.76L327.72 323.09L336.73 448.37H341.99L334.63 323.09L334.25 316.76H327.26Z" fill="white"/>
<path opacity="0.2" d="M334.25 316.76H327.26L327.72 322.78H334.63L334.25 316.76Z" fill="black"/>
<path d="M337.63 319.85H186.19C185.617 319.85 185.068 319.622 184.663 319.217C184.258 318.812 184.03 318.263 184.03 317.69V313.25H339.82V317.69C339.82 317.976 339.763 318.26 339.653 318.524C339.542 318.788 339.381 319.027 339.177 319.228C338.973 319.429 338.731 319.588 338.466 319.694C338.2 319.801 337.916 319.854 337.63 319.85Z" fill="#658CC8"/>
<path opacity="0.6" d="M337.63 319.85H186.19C185.617 319.85 185.068 319.622 184.663 319.217C184.258 318.812 184.03 318.263 184.03 317.69V313.25H339.82V317.69C339.82 317.976 339.763 318.26 339.653 318.524C339.542 318.788 339.381 319.027 339.177 319.228C338.973 319.429 338.731 319.588 338.466 319.694C338.2 319.801 337.916 319.854 337.63 319.85Z" fill="white"/>
<path opacity="0.2" d="M184.03 316.55H339.8V313.25H184.03V316.55Z" fill="black"/>
<path d="M180.76 314.1H343.06C343.553 314.1 344.026 313.904 344.375 313.555C344.724 313.206 344.92 312.733 344.92 312.24C344.917 311.747 344.721 311.276 344.372 310.928C344.024 310.579 343.553 310.383 343.06 310.38H180.76C180.267 310.38 179.794 310.576 179.445 310.925C179.096 311.274 178.9 311.747 178.9 312.24C178.9 312.733 179.096 313.206 179.445 313.555C179.794 313.904 180.267 314.1 180.76 314.1Z" fill="#658CC8"/>
<path opacity="0.6" d="M180.76 314.1H343.06C343.553 314.1 344.026 313.904 344.375 313.555C344.724 313.206 344.92 312.733 344.92 312.24C344.917 311.747 344.721 311.276 344.372 310.928C344.024 310.579 343.553 310.383 343.06 310.38H180.76C180.267 310.38 179.794 310.576 179.445 310.925C179.096 311.274 178.9 311.747 178.9 312.24C178.9 312.733 179.096 313.206 179.445 313.555C179.794 313.904 180.267 314.1 180.76 314.1Z" fill="white"/>
<path d="M276.5 310.38L275.65 307.18H240.77L224.71 308.78L224.09 310.38H276.5Z" fill="#263238"/>
<path opacity="0.4" d="M240.77 307.18V310.38H276.5L275.65 307.18H240.77Z" fill="black"/>
<path d="M247.78 291.82C247.733 292.209 247.769 292.604 247.888 292.977C248.006 293.351 248.203 293.695 248.466 293.986C248.728 294.277 249.05 294.508 249.41 294.664C249.769 294.82 250.158 294.897 250.55 294.89H304C304.836 294.873 305.637 294.552 306.254 293.987C306.871 293.422 307.26 292.652 307.35 291.82L310.52 257.61C310.564 257.222 310.525 256.828 310.405 256.456C310.286 256.084 310.089 255.741 309.827 255.451C309.565 255.161 309.244 254.929 308.886 254.772C308.528 254.615 308.141 254.536 307.75 254.54H254.3C253.463 254.553 252.659 254.872 252.041 255.438C251.424 256.004 251.036 256.777 250.95 257.61L247.78 291.82Z" fill="#263238"/>
<path opacity="0.4" d="M250.73 294.89H304C304.836 294.873 305.637 294.552 306.254 293.987C306.871 293.422 307.26 292.652 307.35 291.82L310.52 257.61C310.558 257.275 310.535 256.936 310.45 256.61H257.19C256.354 256.627 255.553 256.948 254.936 257.513C254.319 258.078 253.93 258.849 253.84 259.68L250.67 293.89C250.634 294.224 250.654 294.562 250.73 294.89Z" fill="#544252"/>
<path d="M287.45 273.91H276.39L279.34 305.56L261.86 308.18V310.38H298.67V308.18L291.13 305.56L287.45 273.91Z" fill="#263238"/>
<path opacity="0.1" d="M276.39 273.91L284.58 309.88L291.13 309.69L287.45 273.91H276.39Z" fill="white"/>
<path d="M282.29 252.21H280.16V255.92H282.29V252.21Z" fill="#263238"/>
<path d="M280.16 252.07H277.59C277.328 251.546 277.201 250.965 277.22 250.38C277.192 249.797 277.319 249.217 277.59 248.7H280.16V252.07Z" fill="#263238"/>
<path d="M284.55 250.24C284.55 250.853 284.368 251.453 284.028 251.962C283.687 252.472 283.203 252.869 282.636 253.104C282.07 253.339 281.447 253.4 280.845 253.28C280.244 253.161 279.692 252.866 279.258 252.432C278.824 251.999 278.529 251.446 278.41 250.845C278.29 250.243 278.351 249.62 278.586 249.054C278.821 248.487 279.218 248.003 279.728 247.662C280.238 247.322 280.837 247.14 281.45 247.14C281.858 247.139 282.261 247.218 282.638 247.373C283.015 247.529 283.357 247.757 283.645 248.045C283.933 248.333 284.161 248.675 284.317 249.052C284.472 249.429 284.551 249.833 284.55 250.24Z" fill="#263238"/>
<path opacity="0.1" d="M284.55 250.24C284.55 250.853 284.368 251.453 284.028 251.962C283.687 252.472 283.203 252.869 282.636 253.104C282.07 253.339 281.447 253.4 280.845 253.28C280.244 253.161 279.692 252.866 279.258 252.432C278.824 251.999 278.529 251.446 278.41 250.845C278.29 250.243 278.351 249.62 278.586 249.054C278.821 248.487 279.218 248.003 279.728 247.662C280.238 247.322 280.837 247.14 281.45 247.14C281.858 247.139 282.261 247.218 282.638 247.373C283.015 247.529 283.357 247.757 283.645 248.045C283.933 248.333 284.161 248.675 284.317 249.052C284.472 249.429 284.551 249.833 284.55 250.24Z" fill="white"/>
<path d="M319.23 286.49V310.38H307.32C307.402 302.08 308.568 293.827 310.79 285.83C310.934 285.32 311.24 284.872 311.663 284.552C312.085 284.233 312.6 284.06 313.13 284.06H316.8C317.119 284.06 317.435 284.123 317.73 284.245C318.025 284.367 318.293 284.546 318.518 284.772C318.744 284.997 318.923 285.265 319.045 285.56C319.167 285.855 319.23 286.171 319.23 286.49Z" fill="#263238"/>
<path opacity="0.4" d="M319.23 286.49V310.38H313.23V287.38C313.23 286.502 313.579 285.66 314.199 285.039C314.82 284.419 315.662 284.07 316.54 284.07H316.76C317.082 284.065 317.401 284.123 317.7 284.242C317.999 284.362 318.271 284.539 318.501 284.764C318.73 284.989 318.913 285.258 319.038 285.554C319.164 285.85 319.229 286.168 319.23 286.49Z" fill="#544252"/>
<path d="M243.23 286.49V310.38H231.32C231.402 302.08 232.568 293.827 234.79 285.83C234.934 285.32 235.24 284.872 235.663 284.552C236.085 284.233 236.6 284.06 237.13 284.06H240.8C241.119 284.06 241.435 284.123 241.73 284.245C242.025 284.367 242.293 284.546 242.518 284.772C242.744 284.997 242.923 285.265 243.045 285.56C243.167 285.855 243.23 286.171 243.23 286.49Z" fill="#263238"/>
<path opacity="0.4" d="M243.23 286.49V310.38H237.23V287.38C237.23 286.502 237.579 285.66 238.2 285.039C238.82 284.419 239.662 284.07 240.54 284.07H240.76C241.082 284.065 241.401 284.123 241.7 284.242C241.999 284.362 242.271 284.539 242.501 284.764C242.73 284.989 242.913 285.258 243.038 285.554C243.164 285.85 243.229 286.168 243.23 286.49Z" fill="#544252"/>
</svg>
